<mxfile host="app.diagrams.net" modified="2023-11-26T15:09:50.403Z" agent="Mozilla/5.0 (Windows NT 10.0; Win64; x64) AppleWebKit/537.36 (KHTML, like Gecko) Chrome/119.0.0.0 Safari/537.36" etag="biTwsCDbsBrT1joKQHdR" version="22.1.3" type="github">
  <diagram name="第 1 页" id="9KIk_M_qB4oNR2Hwlupd">
    <mxGraphModel dx="1687" dy="882" grid="1" gridSize="10" guides="1" tooltips="1" connect="1" arrows="1" fold="1" page="1" pageScale="1" pageWidth="827" pageHeight="1169" math="0" shadow="0">
      <root>
        <mxCell id="0" />
        <mxCell id="1" parent="0" />
        <mxCell id="7VG0Se6K9YWMU1WsLbms-26" value="Evolution Algorithm" style="rounded=0;whiteSpace=wrap;html=1;fillColor=#ffffdf;strokeWidth=0.5;fontFamily=Times New Roman;fontSize=13;verticalAlign=top;" vertex="1" parent="1">
          <mxGeometry x="200" y="530" width="580" height="290" as="geometry" />
        </mxCell>
        <mxCell id="7VG0Se6K9YWMU1WsLbms-21" value="Scenarios information" style="rounded=1;html=1;fillColor=#BECEFF;fontFamily=Times New Roman;fontSize=13;strokeWidth=0;whiteSpace=wrap;labelBackgroundColor=none;horizontal=0;verticalAlign=top;" vertex="1" parent="1">
          <mxGeometry x="110" y="280" width="30" height="210" as="geometry" />
        </mxCell>
        <mxCell id="7VG0Se6K9YWMU1WsLbms-22" value="" style="shape=flexArrow;endArrow=classic;html=1;rounded=0;endWidth=11.03448275862069;endSize=5.186206896551724;fillColor=#A9C4EB;fontFamily=Times New Roman;fontSize=13;" edge="1" parent="1">
          <mxGeometry width="50" height="50" relative="1" as="geometry">
            <mxPoint x="150" y="385" as="sourcePoint" />
            <mxPoint x="190" y="385" as="targetPoint" />
          </mxGeometry>
        </mxCell>
        <mxCell id="7VG0Se6K9YWMU1WsLbms-38" value="" style="shape=flexArrow;endArrow=classic;html=1;rounded=0;endWidth=11.03448275862069;endSize=5.186206896551724;fillColor=#A9C4EB;fontFamily=Times New Roman;fontSize=13;" edge="1" parent="1">
          <mxGeometry width="50" height="50" relative="1" as="geometry">
            <mxPoint x="489.66" y="490" as="sourcePoint" />
            <mxPoint x="490" y="530" as="targetPoint" />
          </mxGeometry>
        </mxCell>
        <mxCell id="7VG0Se6K9YWMU1WsLbms-39" value="&lt;span style=&quot;color: rgb(0, 0, 0); font-family: &amp;quot;Times New Roman&amp;quot;; font-size: 13px; font-style: normal; font-variant-ligatures: normal; font-variant-caps: normal; font-weight: 400; letter-spacing: normal; orphans: 2; text-align: center; text-indent: 0px; text-transform: none; widows: 2; word-spacing: 0px; -webkit-text-stroke-width: 0px; background-color: rgb(251, 251, 251); text-decoration-thickness: initial; text-decoration-style: initial; text-decoration-color: initial; float: none; display: inline !important;&quot;&gt;Excellent individuals&lt;/span&gt;" style="text;whiteSpace=wrap;html=1;" vertex="1" parent="1">
          <mxGeometry x="300" y="490" width="140" height="40" as="geometry" />
        </mxCell>
        <mxCell id="7VG0Se6K9YWMU1WsLbms-40" value="&lt;span style=&quot;color: rgb(0, 0, 0); font-family: &amp;quot;Times New Roman&amp;quot;; font-size: 13px; font-style: normal; font-variant-ligatures: normal; font-variant-caps: normal; font-weight: 400; letter-spacing: normal; orphans: 2; text-align: center; text-indent: 0px; text-transform: none; widows: 2; word-spacing: 0px; -webkit-text-stroke-width: 0px; background-color: rgb(251, 251, 251); text-decoration-thickness: initial; text-decoration-style: initial; text-decoration-color: initial; float: none; display: inline !important;&quot;&gt;task priority, conflict degree&lt;/span&gt;" style="text;whiteSpace=wrap;html=1;" vertex="1" parent="1">
          <mxGeometry x="550" y="490" width="180" height="40" as="geometry" />
        </mxCell>
        <mxCell id="7VG0Se6K9YWMU1WsLbms-165" value="" style="group" vertex="1" connectable="0" parent="1">
          <mxGeometry x="210" y="563" width="190" height="120" as="geometry" />
        </mxCell>
        <mxCell id="7VG0Se6K9YWMU1WsLbms-41" value="Initialize the population&lt;br&gt;&lt;div style=&quot;text-align: left;&quot;&gt;&lt;span style=&quot;font-size: 12px; background-color: initial;&quot;&gt;1.Introduce the excellent individuals&lt;/span&gt;&lt;/div&gt;&lt;font style=&quot;font-size: 12px;&quot;&gt;&lt;div style=&quot;text-align: left;&quot;&gt;&lt;span style=&quot;background-color: initial;&quot;&gt;2.mixed-coding&lt;/span&gt;&lt;/div&gt;&lt;/font&gt;" style="rounded=0;whiteSpace=wrap;html=1;fontFamily=Times New Roman;fontSize=13;verticalAlign=top;" vertex="1" parent="7VG0Se6K9YWMU1WsLbms-165">
          <mxGeometry width="190" height="120" as="geometry" />
        </mxCell>
        <mxCell id="7VG0Se6K9YWMU1WsLbms-164" value="" style="shape=image;verticalLabelPosition=bottom;labelBackgroundColor=default;verticalAlign=top;aspect=fixed;imageAspect=0;image=data:image/png,iVBORw0KGgoAAAANSUhEUgAABIIAAAGdCAYAAABuLdiFAAAgAElEQVR4AeydC9BWxX3/zb9tpk3rtKWtE9pJmaZjie0wlFKqA6WD1QCNRDSjSZgJSDJYojFQo9aqsUZNbDQRrbcgNanGoI6JRhICRUHAGKlBYlCqjoyAihdQERAVRNz/fA/Z993nPOd+eZ5z+ezMO+e++9vPb88+u993d88hhgABCEAAAhCAAAQgAAEIQAACEIAABCDQCgKHtCKXZBICEIAABCAAAQhAAAIQgAAEIAABCEDAIARRCCAAAQhAAAIQgAAEIAABCEAAAhCAQEsIIAS1xNFkEwIQgAAEIAABCEAAAhCAAAQgAAEIIARRBiAAAQhAAAIQgAAEIAABCEAAAhCAQEsIIAS1xNFkEwIQgAAEIAABCEAAAhCAAAQgAAEIIARRBiAAAQhAAAIQgAAEIAABCEAAAhCAQEsIIAS1xNFkEwIQgAAEIAABCEAAAhCAAAQgAAEIIARRBiAAAQhAAAIQgAAEIAABCEAAAhCAQEsIIAS1xNFkEwIQgAAEmkngwIED5vHHHzdz5841Q4YMMbNnzzZvvfVWqswqjh/96Edm/Pjx5pBDDjHHHHOMWbFihXnvvfdSxVPVm6ucvyL8V1Xu/bZr165dZuHChQPl+sEHH+yrSVUuh30FQ+IQgAAEINBzAghBPUdOghCAAAQgAIH8BCT2LFmyxEyaNMkTbyTg6C+tECSxR53lQw89tCOeYcOGmVWrVuU3tM8xVDV/Rfmvz3grl7z8vXnzZnPuued6wqh9L7TtpxBU1XJYOQdiEAQgAAEI9IQAQlBPMJMIBCAAAQiIwFNPPWVGjhzZITi4HbW0+4pLcbYl2E7uJZdcYiTUBPFKKwS98sorZvLkyYFxzZw50+zZs6fWeKuUvzL8V2vnFGi8FdamTJkSWJb7LQRVqRwWiJ2oIAABCECgpgQQgmrqOMyGAAQgUEcC+/fvNzt27DCvvvqq2bRpk7n55pvNmDFjQjtufqFDo1/uvvtu8/zzz3txKC7F2fSgPGo0w4wZM7pG7vgZpRWCosQ58Zav6hyqkL8y/Vdn3+S1PYmw5r4f/RwRVIVymJc3z0MAAhCAQHMIIAQ1x5fkBAIQgEAtCezdu9dcdtllsWKQ7tG9bQwbNmzwRlJptMMFF1wwsOaJ28m1+2mFoKiRCmnjqqJvqpC/Mv1XRea9sklC0IIFC8yoUaPMOeecY84//3wzfPjw0Lqkn0JQFcphr/xCOhCAAAQgUH0CCEHV9xEWQgACEGg8AS3qqtEuVszwb0888URvJFHjQYRkUIvMuiKYpsGceeaZgbyyiDe3335710ijpqwRJKT9zl/Z/gspNq04rdFW4mvD+vXrzRFHHBH4bvRTCJJ9/S6HlhFbCEAAAhCAAEIQZQACEIAABCpBIGpUkK4ROgmsXr06sLObRQhSR/q+++4bGGmkkUdr1qxp1FfDqpa/Iv3XWTLafSSRVO+AX0zWcb+FoKa/Z+0ueeQeAhCAQL0IIATVy19YCwEIQKCxBL73ve8Fdt7UgdM1QieBsDVHsghBnTFz1AsC+K88ylpMvYpCUHk5JmYIQAACEIBAOgIIQel4cTcEIAABCJRE4I477gjsvKlDd++995aUan2j3bhxoxk9enQXM4SgevgU/5XnJ4Sg8tgSMwQgAAEINIMAQlAz/EguIAABCNSegKZtBP0XX+f6PaWjinD1NS991cvPDCGoit7qtgn/dTMp6kzY6ELqkaIIEw8EIAABCNSdAEJQ3T2I/RCAAAQaQgAhKJ0jERLS8ara3fivPI8gBJXHlpghAAEIQKAZBBCCmuFHcgEBCECg9gQQgtK5ECEhHa+q3Y3/yvMIQlB5bIkZAhCAAASaQQAhqBl+JBcQgAAEak8AISidCxES0vGq2t34rzyPIASVx5aYIQABCECgGQQQgprhR3IBAQhAoPYEEILSuRAhIR2vqt2N/8rzCEJQeWyJGQIQgAAEmkEAIagZfiQXEIAABGpPACEonQsREtLxqtrd+K88jyAElceWmCEAAQhAoBkEEIKa4UdyAQEIQKD2BBCC0rkQISEdr6rdjf/K8whCUHlsiRkCEIAABJpBACGoGX4kFxCAAARqTwAhKJ0LERLS8ara3fivPI8gBJXHlpghAAEIQKAZBBCCmuFHcgEBCECg9gTKFIL2799vFP+MGTPMoYceai655JJQXm+99ZZZtmyZOeWUU8ywYcPMIYcc4m0/+clPmiVLlhhdLyMcOHDAPPHEE+aqq64yxx9//EDaSn/UqFFm5syZnl02/TKEhD179piFCxea8ePHe/kWsyaFMvNXBf9VzVd67/7v//7PXHPNNebTn/60V45Vnu3f8OHDzXHHHee9jyprtmznzUfVhaAyy2FedjwPAQhAAALtIIAQ1A4/k0sIQAAClSdQhhC0a9cuc8MNN5gRI0YMdD7VCQ0Sgvbu3euJIOqc2o5q0HbcuHFm3bp1hfFUuosXLx4QX4LSdM/Jvttuu828/PLLZtKkSV22zp49O1WH+r333jObN2/2mFjhy6YXJQRF+cs+H7ZNYuNTTz1lRo4c2ZW/oDij7Myav6QO7oX/wkS/IBY6F8VD+QoTSoLi071pg5j84Ac/MGPGjEnkP5uuyt+8efOMhJI8ISx/cVzypBn3bNnlMC59rkMAAhCAAARcAghBLg32IQABCECgbwSihIU0HTiNzHj88cfN3LlzzZAhQwI7on4h6KWXXjLTp08PvNd2Ut3tkUce6Y3eyQvrueeeM9OmTetIV51niVebNm0yEgA0Sujqq6/uErM0YilIKEkisshujb7QCKcpU6Z0pO/mM4q7nl+zZk2ggOTGYfcnTpxoli9fbrZv32527txp1DGOChpNsmPHDvP888+bBQsWdIyQUpwSxCQaiM++ffu6osqbv64IA070yn8q02IhdmJ+8cUXh5ZtsYnym7IhNhISH3jgAfP1r3/dY2n95N+mFYJk4+c+97mOMiUhVj60ZVo+vfvuu0PLnkYJbdmyJYB4slNVEoJ6UQ6TUeEuCEAAAhCAwCABhKBBFuxBAAIQgEAfCeQVgjT6x53W5O/QuseuELRhwwajUT7u9ST7J598stc5z4rskUceMRKUbFqasqYpNBpNERTUobz22msjBQDFFSUERY1KsHa42zhBwdoZJ6QdccQRZv369fb21FvZLXHM2iYB7Oc//3lXPGXlryshY0w//OfasWrVqi5xzPJJ6jcb37PPPmuOPvroAb42Hm3TCEESl6ZOndoRj96TrVu32qQ6thL7brrpJm+6ppum9vO8X/0WgnpZDjuAcgABCEAAAhBISAAhKCEoboMABCAAgXIJ5BWCNNrkwx/+sLe2zwUXXNAhsvg7mVYIeuihhwZG1UiIOeGEE8z8+fPNypUrzb333uuNdvFPK3PjStNJdulpxJJfBJKIpQ5kVNB13SdbXTvc/Tgh6Morr/TWajnnnHPMaaedFiomKM40gkKQCGDt0hQ2jW7KE2655ZaBPGt0SRArnSsrf67t/fKfa4MEwzlz5gwwsazT+s3GqdFVbhx2P2kZ13Su008/vSMOCXYasRUVJAZdeumlHc+lTdsffxWEoF6UQ3++OYYABCAAAQgkJYAQlJQU90EAAhCAQKkE8gpB7777rtGfDa+//nrodC8JQeqgSoyRqHL22WcbjYoICq+99po59dRTAzuqJ510kjfNKei5sHMaHeEffaHpOeoQJwlRHWd1oKOEIMX/zjvvdIgoGqmjETu28+1u0whBiluLbAeJVMcee6w3rSlJ/oLu0dSvM88807NRC2lv27Yt6DbvXJn5UwL99p+bcYmWrr/sflq/KU4Jn/Z5d5tUCLrrrru6npfPgqbtuXnQvkblBZXBWbNmmTfffNN/e+xxv4UgGVh2OYyFwA0QgAAEIACBCAIIQRFwuAQBCEAAAr0jkFcICrI0rEOoNUg0HUwjFpRu0OgSNz6tbeKO4LEd5cMPPzzVlKegURP6kpmmtaUJWtw5bDpbnBDkT0cdbXW4bZ7cbVpBQevYnHjiiV1xDR061JtK5U876bHLX1OJ0oQi81c1/4WV77R+E8+w9y+JELR79+5A0dWOvIvzV9jzWQXEIrnE2Z70epHlMGma3AcBCEAAAhAII4AQFEaG8xCAAAQg0FMCYR1RCRNZOrYyPipOLV789NNPJ8qjRhpdeOGFXQKHbLvjjjsSxaGbbr/99o4RMxo9oyltaYOEq7DpNGmFIKWtDrsrANn9LNwl1Njn3a2mysQJbmEcbJwS4yQKpQ1F5a9q/itS8Ah7V5IIQRs3bjSjR4/u8ntSIUjl4qKLLup6XkKtvh6XNhTJJW3aUfcXVQ6j0uAaBCAAAQhAIAkBhKAklLgHAhCAAARKJxDWEZWYkEWQkMFa0FejUVxBQvtZvkoUNnVGa6skCUFTijR6RqNosoTVq1d35Ut5yyIEha0Pk4W7O3rH5a7RHS+++GLqrLqjjCTGudP/kkZWRP6q6L8iBY+w9y+JECSxRqKN62/tJxWC5McgH2l9rieffDKpmwfuK5LLQKQF7ATlUZyyvGcFmEMUEIAABCDQYgIIQS12PlmHAAQgUCUCYR3RPB2lIjqolpHW0tFUsCydXY140Cfg/c+qY5g1hI3CyCIEFdlxjho9lURU8PPQiCmNnJKg9/DDD/svJzrOm7+q+i9vvlx4Ye9fEp/pU+9jx47tKt+XXXaZm0TkfpF5KTKuSKNTXqyqXSmzwe0QgAAEINAAAghBDXAiWYAABCDQBAJhHdGqCEF5RCWNhNGIGL8QpFE9WYO+wqWvcfnj7LcQpPxIsAkaiZV2BJT7ZayZM2cardGTJeTtgFfVf3nz5bIMe/+URlyQn84666yOsjhs2DCzdu3auEcHrheZlyLjGjCwgJ2q2lVA1ogCAhCAAARqRgAhqGYOw1wIQAACTSUQ1hGtihCUR3hZtGhRRydZecq6/on1fx57bBx2W3QH1RVwXKEq7ZpI7tek9FWqrCFv/qrqv7z5cnmGvX9KI0nQ1/XOP/98M2TIEG9h9R/+8Iep1oQqMi9FxpUk70nvqapdSe3nPghAAAIQaA4BhKDm+JKcQAACEKg1gbCOaN2FIPfT564ootE8EnOyhioLQcqTndLl5ln7c+bMMRKKkgS7SHTW9YVsGnk64FX2X558WTZ2G/b+KY2ywoEDB8wzzzzjrSWkEUT+sqJj2ZU2FMklbdpR91fVriibuQYBCEAAAs0kgBDUTL+SKwhAAAK1IxDWEc3aGRSAPNO5/ACzCi8vvPCCmTBhQlcnd/r06Uafzc4astoTlF4ZHVR3kWe3g3/EEUcYjfSJC+7zeb44pnTy5K/K/suTLz//sPdPaRQddu3aZRYuXGjGjx/f9V64ZSXru18klyLzXlW7iswjcUEAAhCAQD0IIATVw09YCQEIQKDxBMI6olk7gwJWBSEo7MtlWdbycQtB1YUg2WpH9Pg790mEHTuiKKlw5LLx7+fpgFfZf3ny5WcU9v4pjSKCFtzW6J+5c+d608dsmdCXwa699trAr4ZlffeL5FJE3m0cVbXL2scWAhCAAATaQwAhqD2+JqcQgAAEKk0grCOatTOozFZBCApaX0Z5aoMQlPVT8u4aQ3k5qRzk6YBX2X958uWvDMLeP6WRJ2j6109/+lOjhcKt+KPtlClTvOmD+/fv96IvMi9FxpUn7/5nq2qX306OIQABCECg+QQQgprvY3IIAQhAoBYEwjqidReCwjp/eQWOOowIivqUfNTiz0UtEm0LfpgPVObiQtizVfBfmG1J8uXPd9j7pzSyBCsASfCxApAWCz/jjDO8kUEaIeSGIvNSZFyujXn3q2pX3nzxPAQgAAEI1I8AQlD9fIbFEIAABBpJIKwjWnch6LLLLhvoCNsOsbazZs0yb775ZmZf1kEIUubCPiUf9jl4CQSaOiZGeReJtnDzdMCr7L88+bJs7Dbs/VMaacPmzZvNjBkzOsq9jnU+LBSZlyLjCrM3y/mq2pUlLzwDAQhAAAL1JoAQVG//YT0EIACBxhAI64jWXQi65JJLOjrEVgxq+lfDbMHcs2ePkehj8223Q4cO9UQie5/dvvjii54ApPuSrCVkn4va5umAV9l/efLl5xX2/imNpEGjgL7//e+b4cOHD/hbn5P/zne+E/uluCLzUmRcSfOe5L6q2pXEdu6BAAQgAIFmEUAIapY/yQ0EIACB2hII64hKENC1LKEKawTNnz9/oFNsRRBtx44da7Zs2ZIlW94zdRkRJGM1DczNu92/8MILjaaPucHeW8Qi0TbePB3wKvsvT74sG7sNe/+URpKgtX606LOmf1n/6pPwS5YsMf5pYEHxFZmXIuMKsjXruaralTU/PAcBCEAAAvUlgBBUX99hOQQgAIFGEQjriKpTWWchKKzzpxEx+iJV1lAnIcgd5WNFAm2PPPJIowWlbXBHD82ZMyd2FIl9Lm4b5oMk5Srs2Sr4L8y2JPnyMwt7/5RGXJDQo8/BuyKQ/LtgwYJEIpDiLzIvRcYVl/c016tqV5o8cC8EIAABCDSDAEJQM/xILiAAAQjUnkBYR7TuQtDq1asHRki4Ioj2k3SywxxbJyHIXffHz0CfmLfBfqpdgoI+H19UyNMBr7L/8uTLzzbs/UtSRvWsRv+4vj3++OPNtm3b/MmEHheZlyLjCjU4w4Wq2pUhKzwCAQhAAAI1J4AQVHMHYj4EIACBphAI64iqc6lrWUIVpoY9+eSTZsSIER2dZNthzjPqpU5CkHwX9il5fVZ8x44d3sgRu0i0PZfF50HP5OmAV9l/efLl5xT2/imNqLB3716jcmzLtN1eeumliUcDKf4i81JkXFF5T3utqnalzQf3QwACEIBA/QkgBNXfh+QAAhCAQCMIhHVE6y4E7dy505x00kldHWXlK886OHUTgsI+Ja/RP8uWLTPu9DF3lFARhTtPB7zK/suTLz/XsPdPaUSFMLE17jl/nEXmpci4/HbmOa6qXXnyxLMQgAAEIFBPAghB9fQbVkMAAhBoHIGwjmjdhSBNi9LoCDtSwr/V58n9CyYncW7dhCDlKepT8jfffLPHyL9uUBIWcffk6YBX2X9h74zymzZkjSvrc3778viozLj8cec5LjKPeezgWQhAAAIQgABCEGUAAhCAAAQqQSCsQ1l3IUhwwwQQ5U2jgtavX5/aB2FC0KxZs8ybb76ZKr5edVDdxaBdQUyjgg477DBPCAr6kliqzATcnDd/VfXfmjVruhZoFleJi2mC/HL++ecHipX6alpUCGM7b968qMe6roXFo3ohbSgyrrRpR91fVbuibOYaBCAAAQg0kwBCUDP9Sq4gAAEI1I5AWCdJHVst2JslhE1bueSSS1JHFya8zJ4927z11luR8YWto2LFkKlTp5qXX345Mg7/xTB7Jk2aZHQtTQhjn6UTHpeu/Ty8zbu71Ze4JLoUHfLmr6r+27hxoxk9enSXgDN9+nSze/fuRBh13xe/+MWuOKxf4t6Ve++9N/DZNOs86f358pe/HBhPUBk8cOBA5PpDef2dCFyGm6pqV4as8AgEIAABCNScAEJQzR2I+RCAAASaQiCsk6QOqa5lCWEL/cZ1boPSChNekghBim/t2rVdX1aynW1tTz31VPPaa68FJd11TtOVbr/9djNkyJCuzvPIkSONBLA0IYx9VgEuKm13LSA3/9qfOXOm0eiUokMR+aui/8LWL5KgtmLFiliMzzzzjJFgoy9+hQkxceU7bFSSRnnpk/Iqq1HB2uAvC/Z40aJFHY/rHdEopSjx9ZZbbul6LxRfkKjUEXnJB0WUw5JNJHoIQAACEGgJAYSgljiabEIAAhCoMgF1Fi+66KLAzps6cGmnmdi8quNnO5Tu9rzzzku9Ls+WLVvM2LFju+JLOvpCeVywYEHX865d6pSrYxwVNDrlmmuuCZwSZONSOm4H/J133uk49sevqUT2WXebVYDzx+8eyy77dTA3Le1rtFAZoYj8VdF/sils/SkJgir/bjmwbCW2fec73zHDhw/3RCBxD3tX/FMXFZ/Kkw0vvPCCmTBhQmD5kcAkQSrMBr3XVsyUeOUvDzpWWbHPb9261Zx88snm9NNPN2+//bY1oWsroTcorjLKc1fiESeKKIcR0XMJAhCAAAQgkJgAQlBiVNwIAQhAAAJlEdDnwyWCBHXedG7GjBlm165dqZPXyIGgOJOKN26CYevESBySSJQkqAM+d+7cQJusneo8f/Ob3zTbtm3riHL//v3mgQceMFOmTPGe11adffucu9VojGnTppmvfe1r5oQTTjDHHXeceeWVVzriswcaWaFRH+7zdj+LYGbjjdpu2LDBWxvJpqPtscce6305LOq5LNeKzF8V/RdWLi1blRO9BytXrjR33323Oe200wZGpqmsSQSS0BImBCkeCUZaQ0gCyzHHHGPcdZzCvgZn01dZPPvss83jjz/uTVnUVvEobd2jrUYO2cXC7XN2q+uy/4477jBjxowxWkz8iSeeCC0Kmuqm99s+727TftI+NJEMF4oshxmS5xEIQAACEIBABwGEoA4cHEAAAhCAQK8JaIRL2H/KbSdOnUl14qKmg/jtfumllzwBxMbhbpNOW7FxSgDQKAQ3DndfHVWtW5IkJBETbNzqgE+cONEcffTRAyMndE1rumzevNloPSB7b9BWoy0kPKnzHWbfqlWrBjrl/jgkNEV1upPkN+ieoDV33JEfQc9kPVd0/qrmPwmEYQs9+/3pHktgWbJkycBomyghyD6nZyTiqOzZUTryi8pImChpnw3aqmw/+uijnms1DTHoHvec0pc/o4JGIIWNLiqrPEfZY68VXQ5tvGwhAAEIQAACWQggBGWhxjMQgAAEIJCJgDqtGv2j9Xaef/55b4RCnJjhdgQ1IkAjBzZt2uTFobgUp4KEDh1r0WWtKxIXr0SSiy++2GiNk+3btxutt2I7t9ZOxbVs2TJvdI1rh39fwtIZZ5zhjbrQM2+88UYknyTTu/xp6FjpaLSQBLGwNYt034gRI8y1117bNapIRu3bt897Vp13Tc2R2BSUlj2n6xK6dL/S1PNFhOXLlw9Mb9P0I40SKiL0In/99F8QI5U5TZmyPovbShB56KGHOqKKEoI0qkiiUZgQq/dGo3pUPuPSttc1SshdEyts6qW93y9cWeOz+FvlXgKUynNYnmz8WbdZ7CrjPctqP89BAAIQgECzCSAENdu/5A4CEIBApQiEfcXLdvbSbtWhtQsjRwkjSeJ1F8XNa6dGTcQFdZ7XrVsXOSXOtVudcd1vxaqg/Go6mDr0VhwLsiGqw++mF7av54sIEu2seDFnzhwjcaWI0Kv89ct/YYwkqkSNWpM/JdRoUXKNlvMHPzc7mkxrVtky53/GPdY9S5cujRUW9c7qS2P+EWqaYnbFFVcECknjxo3zyr6bnt332x1WbsPOl7VuUF679DwBAhCAAAQgUBYBhKCyyBIvBCAAAQhAIAEBdYg12ubyyy/3RjHZxXPVadd6LBKVgqZ2WSEobLpOgqT7fovWp1E+NTqorqFK/pMtKitf+tKXzKhRozxRxZYjlS//lC6XuRUuxo8f743uybIml+JTubzxxhvN5MmTB0YIaVSZvgi3ePHiyK/CaXTOt771LW9Em4QblX+NNNJ0PAIEIAABCEAAAsURQAgqjiUxQQACEIAABCAAAQhAAAIQgAAEIACBShNACKq0ezAOAhCAAAQgAAEIQAACEIAABCAAAQgURwAhqDiWxAQBCEAAAhCAAAQgAAEIQAACEIAABCpNACGo0u7BOAhAAAIQgAAEIAABCEAAAhCAAAQgUBwBhKDiWBITBCAAAQhAAAIQgAAEIAABCEAAAhCoNAGEoEq7B+MgAAEIQAACEIAABCAAAQhAAAIQgEBxBBCCimNJTBCAAAQgAAEIQAACEIAABCAAAQhAoNIEEIIq7R6MgwAEIAABCEAAAhCAAAQgAAEIQAACxRFACCqOJTFBAAIQgAAEIAABCEAAAhCAAAQgAIFKE0AIqrR7MA4CEIAABCAAAQhAAAIQgAAEIAABCBRHACGoOJbEBAEIQAACEIAABCAAAQhAAAIQgAAEKk0AIajS7sE4CEAAAhCAAAQgAAEIQAACEIAABCBQHAGEoOJYEhMEIAABCEAAAhCAAAQgAAEIQAACEKg0AYSgSrsH4yAAAQhAAAIQgAAEIAABCEAAAhCAQHEEEIKKY0lMEIAABCAAAQhAAAIQgAAEIAABCECg0gRKFYKWLl1qDjnkEP5gQBmgDFAGKAOUAcoAZYAyQBmgDFAGKAOUAcoAZaCAMiCtJU9ACCrACYhdiH2UAcoAZYAyQBmgDFAGKAOUAcoAZYAyQBmgDPSiDCAEIeSgqFIGKAOUAcoAZYAyQBmgDFAGKAOUAcoAZYAy0JIygBDUEkf3QlUkDdRrygBlgDJAGaAMUAYoA5QBygBlgDJAGaAMVLsM1EoImjx5cp5pbDwLAQhAwPzZn/1Zx386br31VqhAAAIQyEXA39jNFRkPQwACrSfw+c9/vqOt8pnPfKb1TAAAAQjkIyAtxW2vIATl48nTEIBAzQggBNXMYZgLgRoQcBtW2idAAAIQyEMAISgPPZ6FAASCCCAEBVHhHAQg0BoCCEGtcTUZhUDPCCAE9Qw1CUGgFQQQglrhZjIJgZ4SQAjqKW4SgwAEqkYAIahqHsEeCNSfAEJQ/X1IDiBQJQIIQVXyBrZAoBkEEIKa4UdyAQEIZCSAEJQRHI9BAAKhBBCCQtFwAQIQyEAAISgDNB6BAAQiCSAEReLhIgQg0HQCCEFN9zD5g0DvCSAE9Z45KUKgyQQQgprsXfIGgf4QQAjqD3dShQAEKkIAIagijsAMCDSIAEJQg5xJViBQAQIIQRVwAiZAoGEEEIIa5lCyAwEIpCOAEJSOF3dDAALxBBCC4hlxBwQgkJwAQlByVtwJAQgkI4AQlIwTd8WpbboAACAASURBVEEAAg0lgBDUUMeSLQj0kQBCUB/hkzQEGkgAIaiBTiVLEOgzAYSgPjuA5CEAgf4SQAjqL39Sh0ATCSAENdGr5AkC/SOAENQ/9qQMgaYSQAhqqmfJFwQgkIgAQlAiTNwEAQikIIAQlAIWt0IAArEEEIJiEXEDBCCQkgBCUEpgVbh9x44dZvHixeb00083Rx11lHEbnKNGjTInnHCCueqqq8y6devM/v37Szd527Zt5vbbbzczZ87sskf2yU7Zu2vXrty2KD8PPvigmTFjhjn00EPNJZdcEhrnW2+9ZZYtW2ZOOeUUM2zYMI+Ttp/85CfNkiVLjK6XEXrJowz72xZn24Ug6hPqk7a9873Ir/u7rH0CBCAAgTwE2iAE0R6hPZLnHeHZ9AQQgtIz69sTmzdvNmeccYYngNhGpoSNY4891vuzYoe9pu2IESPMDTfcYPbs2VOo3e+995554oknzGc/+9kOe9y0/ftDhgwxl156qdm+fXtqWyQiKR/KjxtvkBC0d+9es3DhQjN8+PCOe93ntD9u3DhPLEttTMADveYRYAKnMhJoqxBEfUJ9kvGV4bEEBPy/Nwke4RYIQAACoQSaLATRHqE9ElrwuVAqAYSgUvEWE7lGwUjYcIWeiRMnmgceeKBjxI/u0zld8zdC4441uubmm29OZLBEJQkwekbxSuCZPXu2Z+PKlSvN3Xff7R3rfFC6Y8aMMT/72c+MxJOocODAAfP444+buXPnemkExeUXgl566SUzffr0wHSDnj/yyCM9QSvKjrhrveIRZ0fUdbF+5plnPCFx9OjR5qmnnoq6vVXX2iYEUZ9QnyR9wVW3aVSlRnWOHz9+oM5XXarRnhoFqtGgqnfj6vOkaTblPv/vTVPyRT4gAIH+EGiiEER7hPZIf94mUrUEEIIsiYpuVUl+/etf7xA2pk6dal5++eVQi3VN9/gbonHHflElKAGN5rFCi4Sgc889N3SEj+49++yzA+2QqKXpWUGdB43+kfCljkcamzds2OCN8ol7xn/95JNPNhqOmiX0gkcWu+wzVgByR26NHDkSIcgCMsa0SQiiPjkksk5x68A21yc7d+40V1xxRagA769D9Vug6bq//OUvA+t053Vrza6fUWsyTkYhAIFSCDRNCKI90t72yKuvvmomTZoU2R7z/4aq37hq1apS3i21/fzppTlWXpSnOgaEoAp7LaiSVCdeU7Ligu7RaJc0BXnevHmR0boCkxr+N910U8eIpKCHlYdrr7224z/J1qawl3r58uXmwx/+sLe2zwUXXBCZD9txe+ihh4zYKG7ZpnWS5s+fbzRC6d577/VGMPmnlVk7tP3e974XZH7kuV7xiDQi5KIEoLCpewhBndDaIgRRn5xiqE86y77/SPWGRmtq1KZbPybdV92r6b9lrb/mt7fKx35mVbYV2yAAgeoTaJIQRHuk3e0RzfjQP+DVj9JMFvXl3Fkv/t9Pe1zELI6gN/2NN97whByJOY8++qhRfzhseRH7jy+Nlpb9ekZ5UZ7qGBCCKuy1FStWmKFDh3Y0yK+88srE/3GVUGNfHnerofwquO6fCrEq5rCgKQKaHmDj0SilqPvdeNQp0NpG9ll3e+KJJ3aNKHr33XeN/mx4/fXXB0Yhuc9qX5WHFb30cmoE0rPPPmsf7di+9tpr5tRTTw2046STTjL6L3jS0EseSW3SfVECkGWHENRJtC1CEPXJQb9Tn3SWf3ukuuOuu+5K1BizdUnYVqNGs6wFZ21pwtbPpgl5Ig8QgED/CDRJCKI9crAc0R4ZfJ/UV7z11ltDBRj7mxo3K2Ywxnx7W7du7Zpdo36mbKyr6BNEBCEoiEoFzkmYkUhiC762EoUefvjhxNa9+OKL3iLSbhzaP/74442+bJU0qIOwYMGCAVtkl+xLE9avX2+OOOKIgThcmyRYxQWN2HGfsfvHHXecNx1M4oa+JiZbo8KmTZsCRxgdfvjhRjYmCVXg4bdTNmlaxrRp0wI5WV7aIgR10muDEER90ulz6pNOHjrSkOsk/5Fz65KofU251X/L2hr8bNrKgXxDAALFEGiKEER7pLM80B7p5PH000/HrnWrgQn6h3zZQTNK3N/yOXPmGH2QqEkBIaii3tR/Zt3Cp/0JEyaYF154IbHFGlVz3nnndcWjuBR/0qCFhSUeWHvSPGvT2L17d+ioniTCkkQem75/q8WxVXEkCWJy4YUXBsZ1xx13JInCW1+n3zxcQzUiygpAWsBVPEaNGhWYR7FDCHLptWONIOqTTp9Tn3TyUP0ZNJVY5y666CKzePHigWm2l19+uTnmmGNC6xe3fj7rrLMa12jqJBd+5HLQPgECEIBAHgJNEYJoj3SWAtojnTx0lEQMSjMzpTuFZGc2btxo9IEd+3t+yy23JHuwRnchBFXQWfv27TNnnnnmQMGzBVCjX9KOxFm0aFFXPIpP8SuduKCRJpqOZm1Qx0CjatIGxaMOhY3H3WqonSrCqPDII490TZNTHGKyZcuWqEe7rvkVXmtL3BpJiqgqPNxMSai78cYbO0Z5Bc2/tvlECHLpNV8Ioj7p9LeOqE8Gmei/WxJsbP2grRZ+lsCs+i4o6Lyu6z73Of++6vZ77rknKIrGn/OzaHyGySAEIFAqgSYIQbRHuosI7ZFuJjpjl/3w/5baY7Uv9GGhsHZKcKzpzmoJFXdR67i+arrYq3E3QlA1/NBhhdZWOPbYY7sa2PpEe9pFODXdSdOe7Itjt0lFJf/0Mq39oNE9WYKUVJu+f6uFnaOCf1SSfd4uFh31rP9aGJMkcVWFhz9PQccaPaZRZJaV3SIEddJq+tQw6pNOf+uI+mSQydq1awemhGlq2J133pl4/rtEpGuuuSbwYwC2vkky4nPQmubs2fzbbXNyRk4gAIF+EGiCEER7pLvk0B7pZmLPRPUb9duqJUeSLuth40yzffPNN82sWbMG+lEIQfH0Sh3/vHTp0gFnqABIxWpiCKsUsghBGi0zduzYDm5ip6FuGvIWF/yjZzTVzF3IOe5593rYPFjZEzdCKYxJEvHGtUH7eeKqCg9/noKOJRqqzIiv+4cQ1Emr6UJQWHmnPhmc7mrfj7bVJ+5UWYlAWsAz7X/XtGiiFk/Uf+csR3er8/oSZNuCy0D7BAhAAAJ5CDRBCKI90l0Cwpi0rT3STcZ4X3T2/5b6j8tcPNrtR+nL008++WSQmbU+x4igCrovrFLI0nHzD2uzL1ASMUAdAn0K2D5T5jYub2FMslSUYUzibKgSjyTFNmyNqCS+TxJ/U+5BCEruybB3J0mZqtL7Q31y0Od21GDeIdZB08vc34s8/0BIXjqrdaebf+0TIAABCOQhgBDUSY/2SCcPHYUxqWv/JmoAgfsbW9bi0a4QlKSd2+2R6p9BCKqgj8I6KZqnqJc8TQirFJIU6KgFnt0XsIj9uM+3hzHppRBUJR5Jy4D4+P2TxPdJ42/CfW0VgqhPihkRFFbHxjW8qlCf2BGORSzqHFZHq/6Jq9+bUI/48+Cvd/3XOYYABCCQhkCThSDaI7RHgt6FpEKQfm/LWDwaISjIK9HnSv23V1umhvlXKbcNSk3xSrswclgnJckXyOx/i2362mYRXqKLTLKrYZ2MLPaEMYnruFWJRzJqxvOX6z/tIwR10mu6EER90ulvHVGfHGRy2WWXFTbH3p1m5q9zsjTyu71WrzN+BvWyHmshAIGqEWiCEER7pLtU0R7pZmLPuELQl770pcCvm9rf2rwjm22a7hYhyKWRbB8hKBmnyLt27tzp/QfVFm67HTp0qPe1m8iHfRfDFmbT4ldaBCsqBFVOWYSXqDSSXguyRVyy2JNVCAqyIUv6SfNcxH2yz5Yfu0UI6iTbdCGI+qTT3zoKepfbVp/YBs6cOXMK+8S7FlIMWiuojXWOrW/ttrsUcgYCEIBAcgJNEIJoj3T7m/ZINxN7xhWCtL9q1aqBj1vY31Z3q7UOdU9RwbaTlEZT2zFMDSuqtBQYj9bScD/Z7hbyuK9r+c0Iq2Buuukm/61dx2vWrOlq1Gse5ttvv911b9knwvKRRYjJKgRViUdS3ghB8aSaLgRRn3SXAeqTwbUEND2sqBD23159BVP/lGhTcH+3tU+AAAQgkIdAE4Qg2iPdJYD2SDcTe8YvBKn86JPxQf9wsr+5Rx55pPfpeRtHni1CUHp6pbZ22jI1TNg3bNjgDdm3BdtuZ86cafbs2ZPYM3YNCPu8tnpJNm3aFBuH/rvrPqf9PJ+Pj00w4oYqVJRV4hGBquMSQlAHjsCDpgtByjT1SafrqU86eRR1FCayMzWs1KZRUe4jHghAoMIEmiAECS/tkc5CRnukk4d75BeCdG3//v3eekD+/ql7fPLJJ5sdO3a4UWXaRwhKj63U1k6bhCCtt6D1G9yCrX2poMuWLUvkmbA1GxYsWJDoE8FBwkeStYUSGZfypqpWlP3ikRQfQlA8qTYIQdQnneWA+qSTR1FHYUJQv0aSFpWvLPH4f7uzxMEzEIAABCyBpghBtEesRw9uaY908nCPgoQgXX/55ZeNPhvv/511j4tYPBohyPVGsn2EoGScEt0VVtBV+HUtLqxfv75rVFGaT+wFCUFZ1imKszPJ9apWlP3ikYSZ7kEIiifVBiFIFKhPBssC9ckgiyL3woSgefPmFZlMLeJyG6TaJ0AAAhDIQ6ApQpAY0B4ZLAm0RwZZ+PfChCDd98QTT5S+eDRCkN8j8celtnbaNCLIon766afNxIkTu1TPOEEnqJLVtK406zRISDr88MO70k67TpHNS55tFSrKKvFIyhIhKJ5UW4QgkaA+OVgeqE/i34ssdwQJQRrFqn8qtC0gBLXN4+QXAuUSaJIQJFK0Rw6WF9oj4e9NlBCkp8pePBohKNw3YVcQgsLI5Dgv8UbCj79hOWXKFLN27Vpz4MCBgdg1d1LrAo0ZM6bj/n/7t38zu3fvHrgvyU5Y5XTiiScWMvcyiQ32njBbJHSkDUGdFbGN+3x8mA394JE0zwhB8aTaJASJBvVJdb8apnqoyvVJ3NsUVEfWOT9x+Y267v+9jrqXaxCAAATiCDRNCFJ+aY/QHokq93FCUNmLRyMERXkn+BpCUDCX3Gcl9tx2220d4o5taA4fPtwbNXT00UebIUOGdNwjsej+++/vEIuSGhMmmOg/vMuXL08aTex9su+6664z77zzTui9QR0M5b+XQlCVeISC8l1ACPIBCThsmxAkBNQnT3mfArV1qN1SnwS8IClOrV69uuP3R1yTfKEyRRK1udWWKbutjeEYCgEIVJJAE4UggaY9Qnsk7IWLE4L0XJLFo5MuqeK3AyHITyT+GCEonlGmOx566CGv4yLR58477/Q+n6cviB111FEdDe9Ro0aZT3/600bTt5577rlEi0KHGbRv3z5z5plndsRvG7VFr8iudJReWKiCEFQlHmGc/OcRgvxEuo/bKARRn/S/4VXH+qT77ek8o7WA7G+Etkm/UNkZSzOOXA7aJ0AAAhDIQ6CpQhDtEdojYe9FEiFIz+pr2kEzZ9zf4bglVYJsQAgKohJ9rtTWThvXCNKwtyVLlphhw4Z5f5oP2cug/+a6L5K7X8SK7PoCmkYY6WWPClUQgmRfVXhEsXKvIQS5NIL32yQEUZ8cLAPUJ8HvQp6z+lSrpoG5vxFXX311rn9G5LGn38+6HLRPgAAEIJCHQNOEINojB0sD7ZHwtyKpEKQYtm7dajQzxv/b6x6nbZMgBIX7JuxKqa2dtglBqiTvuusuTwBSQb711lt73qjesGFD15fH7EslAWfhwoWZbXrppZfMcccd58WvdKJCVSrKqvCIYuVeQwhyaQTvt0UIoj4Z9D/1ySCLovYefvhho68o2t8HNcjUMGtrsBzstq0cyDcEIFAMgSYJQbRHBssE7ZFBFv69NEKQni168WiEIL9H4o8RguIZJb7DLdATJkwwL7zwQuJni7px7969Zs6cOQONe9uotVuNVNJUNXfB6iRpu8P4FL/SiQpVqSirwiOKlXsNIcilEbzfFiGI+mTQ/9QngyyK2FO9eNZZZw38TuifBLfffnsRUdc2Dvsbabe1zQiGQwAClSDQJCGI9shgkaI9MsjCv5dWCJLAqAEKaoPY317/VlPW9en5JAEhKAmlznsQgjp5ZD7SSvruMPtjjz021affMycc8KAWAHX/0+t/qfTCnX/++Ym/JLZ582Yzbdo07yWVkKQvn8WFqlSUsrMKPOJ42esIQZZE+LYNQhD1Saf/qU86eeQ9Wr9+fcfI0VNPPdWbs5833jo/7/+drHNesB0CEOg/gaYIQbRHOssS7ZFOHu5RWiFIzxa5eDRCkOuNZPsIQck4xd6lKWH+huTZZ5/tDbWX4tnLoJdKQo/fHv+xFrK+5pprjKZ8+W3UiKFnnnnGXHzxxR1fNrv00ku9lzYuP08++aQZMWJElw0SOtKGsK9/xX0+3qZTBR7WlrgtQlAcIWPaIARRn3SWA+qTTh55jvyjgdL8ty1PulV/1v/7WHV7sQ8CEKg2gaYIQbRHOssZ7ZFOHu5RFiFIz7uzTvy/xfY4yeLRCEGuN5LtIwQl4xR517vvvmvOO++8LtHDFl59Il7rL0ycONH70zo7F1xwgdHizf6/u+++26xcudL727Rpk9m5c2eXSBNpzK8uvvzyy0af37M2xG1dG4M+a6/n03zO78EHHwxMW5zEK03YsmWLGTt2bFd806dPN7t3704UVb95JDLSGIMQFE+q6UIQ9Ul3GaA+6WaS9Yw7QjLvunFZbajic/7fyCraiE0QgEB9CDRBCKI90l3eaI90M7FnsgpBej5JPy3uo0cIQdYTybcIQclZhd6p0TQXXXRRl1Dhb1hmPdbIHY3EefbZZ0NtCLqgOZX6b2/WdN3n0v7XeP78+YHpphFvbJ78i5pauyQOSSRKGvrJI6mNCEHxpJouBFGfdJcB6pNuJlnO6EthJ5988kDdnHSEZ5a06vaM/V2x27rZj70QgEC1CDRBCKI90l2maI90M7Fn8ghBiiOunxb3zyuEIOuJ5FuEoOSsIu/UujlaP8c2IsvYatTODTfckGhqljVWX80aN25cLrskROm/yEmD/bpYEIO4l9ifRtxwQVXIaRa+7gcPf56ijhGCougcvNZ0IUi5pD4ZLAfUJ4Ms8uypQa9Psdp6Oc0Izzzp1uVZy8Vu62I3dkIAAtUk0AQhSGRpjwyWL9ojgyyC9vIKQYrznnvuiVw8Wn1tjcoKCghBQVSizyEERfNJdXXNmjVmzJgxAw1t26Asehs3NM5v9HPPPTew2HNaWyQirVu3zh9lx7GEGP2nWcP6Fi1aZCZNmhTJQIKW1h4SLy1C505/03o+Nq5ly5bF2i1h6YwzzvCm0in9N954o8O2oIOyeQSlmfQcQlA8qTYIQaJAfUJ9Ev82JL/D/epL2hGeyVOp753+38b65gTLIQCBKhBoihAklrRHaI8keaeKEILyLB6NEJTES533IAR18sh9JGHjC1/4QqQQ4m9wpj2W+CGRJE3QAqGLFy9OLFRJrJk3b16iL8mELeacNF/uos9hq/EnjUtCSpJQJo8k6YfdgxAURmbwfFuEIOWY+uSQ1HUp9cngu2L33Ln3+m+aRCFCJwH/b0znVY4gAAEIpCPQJCFIOac9Qnsk7g0oQghSGnGzQfR7HbR4NEJQnIe6ryMEdTPJdcbOb9Sw+61bt3ojVCSUPProo96oleXLl5vrr7++Y5FoFWa7kLTdjho1KrIDNHPmzEQijT8zUlofe+wxb1FijdyR4GMbwEcddZRRvBKMdu3a5X+0kcdV44EQFF/M2iQEUZ/El4cq3VG1+kRs3AaVRCB9AUbTxAidBOzvoN12XuUIAhCAQDoCTROCaI+k83+/7+5He6QoIUjs3H9g2d9l/9Y/QwYhKH2pQwhKzyz0CVtJFjnsXoVaXw+7+eabzfjx4wdEm9GjR5uNGzeG2sKFehJACIr3W1uEIOqT+LLAHdEE1BBUQ0mNp7Trs0XH3Lyr/gZm83JIjiAAgV4SaJIQRHuklyWnvmkVKQSJgi13/t9ne+xv1yAEpS87CEHpmQU+YQurCqUWuioj6FPpp5122kCjXnN2Cc0igBAU7882CEHUJ/HlgDuiCWjUz8KFCz0BSL9LV1xxRaoPDUTH3ryrtmFpt83LITmCAAR6SaApQhDtkV6WmnqnVbQQJBru+ob299ndutPdEYLSlx+EoPTMup7Qujb2y1zu+hRdNxZwQl/v0gswdOhQ88gjjxQQI1FUiQBCULw3mi4EUZ/ElwHuiCfgNp78w6fjn27fHW7DUvsECEAAAnkINEEIoj2SpwS079kyhCD3n1r+32l7bGfiIASlL3OltnaWLl06MJVJzpo8eXJ6Cyv+hLv+gvJ47733lmqxPpmndMaOHWu2bNlSalpE3nsCCEHxzJssBFGfxPufO+IJ2P/g6rdi7ty5mdaTi0+lWXeIlfvXrNyRGwhAoNcE6i4E0R7pdYmpf3plCEGiIoFHX4h2f6P9+yeeeKLXL9aADF0bOXKkkZDZtCAtxc27tJY8ASEoB713333XG25vHTJixAjz5JNP5ogx/tGbbrrJKwBz5swx+vIVoVkEEILi/dlUIYj6JN733BFPwP0PbtBXNeJjaOcd9nfcbttJoZm5VodW0yRPOOEE70/tKJ1LG6oWT1r7ub+3BOosBNEe6W1ZaUpqZQlB4pNk8egLLrjA++iRfscRgpKVKoSgZJwC71q7dq3R3ETbcDz88MPN+vXrA+8t4qS+Qnb00Ud7az7o62OE5hFACIr3aVOFIOqTeN9zRzQB/Uboi5X6TZo+fbr3ud/oJ7hqCdjfcbu159nWm4A+ea13wfrVbk8++WSvY5E0d1WLJ6nd3Nc/AnUWgmiP9K/c1DnlMoUgcXFHO9u6PGyLEJSsJCEEJePUdZfU8gsvvLCrcVHWf2Bfe+01c+qpp3rpnXXWWYwG6vJIM04gBMX7sYlCEPVJvN+5I5qA+98yiUE6JiQn4G9MJn+SO6tM4Nprr+1qp1lf61rSULV4ktrNff0jUFchiPZI/8pM3VMuWwgSH3f9Q1uXB20RgpKVJoSgZJy67nIXpPIXQIlB+u9RUeGZZ54xmvuodGjgF0W1mvEgBMX7pYlCEPVJvN+5I5yARB+NcLC/ERoZREhHwP87nu5p7q4igah6Vf5O+nGPqsVTRdbY1E2grkJQVHmnf9PtZ84MEuiFEJRk8WjV7whBg36J2kMIiqITcU0F8corrwz9T9OQIUPMxRdf7A1jO3DgQERMwZcU/+bNm704FJcK9cSJE83TTz8d/ABnG0EAISjejU0UgqhP4v3OHcEEXBGoyN+I/fv3G31tLGlnOdi6+pxFCKqPr5JaGtWhRQhKSpH7shKoqxBEeySrx3muF0KQKNv2if932z1GCEpWHhGCknEKvMsdiu8WPv++1hE65ZRTzPXXX2+0ts/Pf/5zb8TQq6++auzfpk2bzMqVK70FDc855xwzatSoDpFJ/+3lv7yBbmjUSYSgeHc2UQhSrqlP4n3PHZ0EXBHIfj61845sR/rnxa233uqtR3fXXXdli6RmT/l/t2tmPuYGEIjr0OqfebonLlQtnjh7uV4NAnUVgkSP9kg1ylDdrOiVECQu/q/a+X/DEYKSlR6EoGScQu967rnnzLRp0zpEG39hzHN86KGHmm984xuZvnARajQXKksAISjeNU0VgpRz6pN4/3PHQQJliUAvvviiOffccz0RaOzYsd7nWNvA3P873YY8tyGPYR3aCRMmpCrbVYunDb6rex7rLASJPe2RupfA3tvv9mHmz59fugFRi0cjBCXDjxCUjFPkXfqM+2233Wb0+Xh/YzLP8YwZM7ypZUn+YxVpIBdrQ8CtRG3ZkRi4Zs2a2uShbEObLASJHfVJ2SWo/vG7ndLDDjvMqMGlEaVZ/jRKVaNVVfdMnjzZE4Bs3aMPImjh0DYEm2e7bUOe25LHl156yZx99tneV1411V4f3NC5tKFq8aS1n/t7S6DuQpBo0R7pbZmpe2puH0b7vQhhi0cjBCWjjxCUjFOiuzQffcmSJWbKlCmZBSFNI9PLo/WBEIASYW/MTfL3RRddFFh2HnzwwcbkM29Gmi4EWT7UJ5YEW5fAli1bzHHHHRdYT1gRo4itBGiJRG0JfmZtyTf5hAAEyiHQBCHIkqE9YkmwDSPgX5NNC4u//fbbYbcXdl59p4ULF3b8E0u/5whByRAjBCXjlPqunTt3GnXev/nNb5pPf/rTZvz48V2FdPjw4d4C0FoTSIVY4o8WwCK0k8Du3bvN9OnTAzt4mndLOEigLUKQ62/qE5dGe/f1sQAtCO0XLco41pcqd+zY0RrYfoatyTgZhQAESiHQJCHIBUR7xKXBviWgtW61VqH9LdX02xdeeMFeLnUbtHg0QlAy5AhByThxFwRKJRCmaNsKderUqSwW/isPtFEIKrXwEXktCGzYsMGMGzduoJFl64aytvPmzasFl6KM9HMsKl7igQAE2kmgqUJQO71JrqMI6B/Zp512Wlf75LLLLvOmF0Y9W9Q1/+LRCEHJyCIEJePEXRAolMAbb7zhfTlOX5C7++67zaxZs7pGjPk7JhpBps85a7qGlHf9t76NI8gQggotikRWAwKPPvpox3/a/HVD0cdHHHGEkfDUpuBn2Ka8k1cIQKB4AghBxTMlxv4T2LdvX8cXr2+++WZv1ov/N9QeT5o0yevnPP/88wPPKY4ygrt+IkJQMsIIQck4cRcECiXgLqhmK8u026ZWcnGgEYLiCHG9aQTcT7KmrSey3D9z5szWfanSz6lpZYj8QAACvSWAENRb3qTWGwJa9sT/e5n2uMx1T/UlMfWPmtpH0kc9XN5Lly7N5XiEoFz4eBgCEOg1AYSgXhMnPQg0n4DbsNI+AQIQgEAeAghBeejxLASyEbBLbYwePdo89dRT2SKpgAD9PAAAIABJREFU8FMIQRV2DqZBAALlE0AIKp8xKUCgbQQQgtrmcfILgXIJIASVy5fYIdBGAghBbfQ6eYYABAYIIAQNoGAHAhAoiABCUEEgiQYCEPAIIARRECAAgaIJIAQVTZT4IACBWhFACKqVuzAWArUggBBUCzdhJARqQwAhqDauwlAI1IZA7YWgf/7nfzb8wYAyQBnIWgb8QlDWeHiOMkgZoAzYMuAXgux5tpQRygBlIEsZOProozsWdf3MZz5D/4c+IGWAMpCrDNRaCPI3tDg+pONHAh7woAxQBigDlAHKAGWAMkAZoAxQBigDlAHKAGUgqgzU6qthURnhGgWdMkAZoAxQBigDlAHKAGWAMkAZoAxQBigDlAHKQHQZQAg6JBoQBQg+lAHKAGWAMkAZoAxQBigDlAHKAGWAMkAZoAw0pQxUXgi68cYbDX8wiCsDn/vc57qmycU9w/V2livNs3f/VHYoC+0sC3F+9//Qf+UrX6Gs8JscWAbcOkX7cWWL69Q5lAHKQFQZUNuEeoUyElVG7LWPfexjHX2gqVOn8htEWyVRGai0EFSbJbgxtO8Ebr311o5KUD+eBAhAAAJ5CPiFoCeeeCJPdDwLAQhAAAIQgAAECiVwwQUXdPSBvvrVrxYaP5FBIIzAIWEXOA+BXhJACOolbdKCQDsIIAS1w8/kEgIQgAAEIFBXAghBdfVc/e1GCKq/DxuRA4SgRriRTECgUgQQgirlDoyBAAQgAAEIQMBHACHIB4TDnhFACOoZahKKIoAQFEWHaxCAQBYCCEFZqPEMBCAAAQhAAAK9IoAQ1CvSpOMngBDkJ8JxXwggBPUFO4lCoNEEjjjiiI5596wR1Gh3kzkIQAACEIBA7QggBNXOZY0xGCGoMa6sd0YQgurtP6yHQBUJIARV0SvYBAEIQAACEICAJYAQZEmw7TUBhKBeEye9QAIIQYFYOAkBCOQggBCUAx6PQgACEIAABCBQOgGEoNIRk0AIAYSgEDCc7i0BhKDe8iY1CLSBAEJQG7xMHiEAAQhAAAL1JYAQVF/f1d1yhKC6e7Ah9iMENcSRZAMCFSKAEFQhZ2AKBCAAAQhAAAJdBBCCupBwokcEEIJ6BJpkogkgBEXz4SoEIJCeAEJQemY8AQEIQAACEIBA7wggBPWONSl1EkAI6uTBUZ8IIAT1CTzJQqDBBBCCGuxcsgYBCEAAAhBoAAGEoAY4saZZQAiqqeOaZjZCUNM8Sn4g0H8CCEH99wEWQAACEIAABCAQTgAhKJwNV8olgBBULl9iT0gAISghKG6DAAQSE0AISoyKGyEAAQhAAAIQ6AMBhKA+QCdJjwBCEAWhEgQQgirhBoyAQKMIIAQ1yp1kBgIQgAAEINA4AghBjXNpbTKEEFQbVzXbUISgZvuX3EGgHwQQgvpBnTQhAAEIQAACEEhKACEoKSnuK5oAQlDRRIkvEwGEoEzYeAgCEIgggBAUAYdLEIAABCAAAQj0nQBCUN9d0FoDEIJa6/pqZRwhqFr+wBoINIEAQlATvEgeIAABCEAAAs0lgBDUXN9WPWcIQVX3UEvsQwhqiaPJJgR6SAAhqIewSQoCEIAABCAAgdQEEIJSI+OBggggBBUEkmjyEUAIysePpyEAgW4CCEHdTDgDAQhAAAIQgEB1CCAEVccXbbMEIahtHq9ofhGCKuoYzIJAjQkgBNXYeZgOAQhAAAIQaAEBhKAWOLmiWUQIqqhj2mYWQlDbPE5+IVA+AYSg8hmTAgQgAAEIQAAC2QkgBGVnx5P5CCAE5ePH0wURQAgqCCTRQAACAwQQggZQsAMBCEAAAhCAQAUJIARV0CktMQkhqCWOrno2EYKq7iHsg0D9CCAE1c9nWAwBCEAAAhBoEwGEoDZ5u1p5RQiqlj9aaw1CUGtdT8YhUBoBhKDS0BIxBCAAAQhAAAIFEEAIKgAiUWQigBCUCRsPFU0AIahoosQHAQggBFEGIAABCEAAAhCoMgGEoCp7p9m2IQQ127+1yR1CUG1chaEQqA0BhKDauApDIQABCEAAAq0kgBDUSrdXItMIQZVwA0YgBFEGIACBogkgBBVNlPggAAEIQAACECiSAEJQkTSJKw0BhKA0tLi3NAIIQaWhJWIItJYAQlBrXU/GIQABCEAAArUggBBUCzc10kiEoEa6tX6ZQgiqn8+wGAJVJ4AQVHUPYR8EIAABCECg3QQQgtrt/37mHiGon/RJe4AAQtAACnYgAIGCCCAEFQSSaCAAAQhAAAIQKIUAQlApWIk0AQGEoASQuKV8AghB5TMmBQi0jQBCUNs8Tn4hAAEIQAAC9SKAEFQvfzXJWoSgJnmzxnlBCKqx8zAdAhUlgBBUUcdgFgQgAAEIQAACHgGEIApCvwggBPWLPOl2EEAI6sDBAQQgUAABhKACIBIFBCAAAQhAAAKlEUAIKg0tEccQQAiKAcTl3hBACOoNZ1KBQJsIIAS1ydvkFQIQgAAEIFA/AghB9fNZUyxGCGqKJ2ueD4SgmjsQ8yFQQQIIQRV0CiZBAAIQgAAEIDBAACFoAAU7PSaAENRj4CQXTAAhKJgLZyEAgewEEIKys+NJCEAAAhCAAATKJ4AQVD5jUggmgBAUzIWzPSaAENRj4CQHgRYQQAhqgZPJIgQgAAEIQKDGBBCCauy8mpuOEFRzBzbFfISgpniSfECgOgQQgqrjCyyBAAQgAAEIQKCbAEJQNxPO9IYAQlBvOJNKDAGEoBhAXIYABFITQAhKjYwHIAABCEAAAhDoIQGEoB7CJqkOAghBHTg46BcBhKB+kSddCDSXAEJQc31LziAAAQhAAAJNIIAQ1AQv1jMPCEH19FvjrEYIapxLyRAE+k4AIajvLsAACEAAAhCAAAQiCCAERcDhUqkEEIJKxUvkSQkgBCUlxX0QgEBSAghBSUlxHwQgAAEIQAAC/SCAENQP6qQpAghBlINKEEAIqoQbMAICjSKAENQod5IZCEAAAhCAQOMIIAQ1zqW1yRBCUG1c1WxDEYKa7V9yB4F+EEAI6gd10oQABCAAAQhAICkBhKCkpLivaAIIQUUTJb5MBBCCMmHjIQhAIIIAQlAEHC5BAAIQgAAEINB3AghBfXdBaw1ACGqt66uVcYSgavkDayDQBAIIQU3wInmAAAQgAAEINJcAQlBzfVv1nCEEVd1DLbEPIagljiabEOghAYSgHsImKQhAAAIQgAAEUhNACEqNjAcKIoAQVBBIoslHACEoHz+ehgAEugkgBHUz4QwEIAABCEAAAtUhgBBUHV+0zRKEoLZ5vKL5RQiqqGMwCwI1JoAQVGPnYToEIAABCECgBQQQglrg5IpmESGooo5pm1kIQW3zOPmFQPkEEILKZ0wKEIAABCAAAQhkJ4AQlJ0dT+YjgBCUjx9PF0QAIaggkEQDAQgMEEAIGkDBDgQgAAEIQAACFSSAEFRBp7TEJISglji66tlECKq6h7APAvUjgBBUP59hMQQgAAEIQKBNBBCC2uTtauUVIaha/mitNQhBrXU9GYdAaQQQgkpDS8QQgAAEIAABCBRAACGoAIhEkYkAQlAmbDxUNAGEoKKJEh8EIIAQRBmAAAQgAAEIQKDKBBCCquydZtuGENRs/9YmdwhBtXEVhkKgNgQQgmrjKgyFAAQgAAEItJIAQlAr3V6JTCMEVcINGIEQRBmAAASKJoAQVDRR4oMABCAAAQhAoEgCCEFF0iSuNAQQgtLQ4t7SCCAElYaWiCHQWgIIQa11PRmHAAQgAAEI1IIAQlAt3NRIIxGCGunW+mUKIah+PsNiCFSdAEJQ1T2EfRCAAAQgAIF2E0AIarf/+5l7hKB+0iftAQIIQQMo2IEABAoigBBUEEiigQAEIAABCECgFAIIQaVgJdIEBBCCEkDilvIJIASVz5gUINA2AghBbfM4+YUABCAAAQjUiwBCUL381SRrEYKa5M0a5wUhqMbOw3QIVJQAQlBFHYNZEIAABCAAAQh4BBCCKAj9IoAQ1C/ypNtBACGoAwcHEIBAAQQQggqASBQQgAAEIAABCJRGACGoNLREHEMAISgGEJd7QwAhqDecSQUCbSKAENQmb5NXCEAAAhCAQP0IIATVz2dNsRghqCmerHk+EIJq7kDMh0AFCSAEVdApmAQBCEAAAhCAwAABhKABFOz0mABCUI+Bk1wwAYSgYC6chQAEshNACMrOjichAAEIQAACECifAEJQ+YxJIZgAQlAwF86mJLBnz56UT3TejhDUyYMjCEAgPwGEoPwMiQECEIAABCAAgfIIIASVx5aYowkgBEXz4WpCAnfccYf57Gc/a5599tmET3TeVrQQtGDBApNXnOq0kCMIQKDXBD7+8Y+bm266KXOyRQpBGzduND/5yU8y28KDEIAABCAAAQg0j8CXv/xl89Of/jRzxooUgu69917zta99LbMtPNguAghB7fJ3abk9cOCAGTZsmHn/+99vvvCFL5ht27alSqsIIWjv3r3m+uuvN3/6p39qTjvttFTpczMEIFA9Arfffrs55JBDzEc+8hFz5513mvfeey+VkUUIQU899ZSZNm2a+Y3f+A3z3HPPpUqfmyEAAQhAAAIQaDaBNWvWeG2Vo48+OpMgVIQQtHz5cjNu3DjPjl/84hfNBk7uCiOAEFQYSiL69re/7VVA6rj91m/9ljnnnHPMa6+9lghMHiHo7bffNvPmzTNDhw710pcY9dJLLyVKl5sgAIHqEpDAfPjhhw/UK3/9139tFi9enNjgPELQY489Zj7xiU+Y973vfV76s2fPTpwuN0IAAhCAAAQg0B4CEyZMGGirHHPMMUbiUNKQRwi6//77zfjx4wfSnjJlStJkuQ8CBiGIQlAoAY0KkhBk/377t3/bfOUrXzG7du2KTCeLEKSpX9/4xjfMH/7hHw6kp3TPPPPMyLS4CAEI1IfAzTff3PF+6x0fPXq0UeMnLmQRgtauXWuOP/74rjS3bt0alxzXIQABCEAAAhBoIYFVq1Z1tRs++tGPJhKEsghBK1eu7BCAbL9r3bp1LaRPlrMSQAjKSo7nAgnccMMNXRWhKqchQ4Z4os1bb70V+FwaIWjnzp3mP/7jP7w4bcVntxqJtH379sA0OAkBCNSTgKZ72nfc3WoY9v/+7/+GZiqNEPTggw+aY489NjCdOXPmhKbBBQhAAAIQgAAEIGCnZrntFO1PmjTJ6J9MYSGNEKS1iDTiyJ+GjrWuIgECaQggBKWhxb2xBPbt29c1QsetrD74wQ+aa665xug+NyQRgl5//XWjBdl+93d/N7ACVDr/+q//6kbLPgQg0AAC3/rWt0Lfeb33GgqtqVz+4NY92n/iiSf8t5gVK1YYd0i3/5nf/M3fZKppFzVOQAACEIAABCDgEtBIZX8bwj2ePHlyoCCURAiSAPSP//iPkfGzNpDrDfaTEEAISkKJe1IR0Ho9bsUXtP+hD33IzJ8/fyDeKCFII3zOPvts84EPfCAyXl1PuibRQMLsQAACtSDwx3/8x5Hvv+qZT33qU0Zf97LBX/e4QtCPf/xjc9RRR8XGqbqHAAEIQAACEIAABOII/P3f/31su+K4444zrmgTJQRpraGw0cpuG0dT2gkQSEsAISgtMe6PJaDpX7/3e78XWxGqAtNCsAsXLjTf/e53O+7/zGc+Y15++WXzL//yL97C025lF7av0UIECECgmQSuuuqqjjoirB74tV/7NTNz5kzz7LPPdt0vIWjRokXmb//2b7uuBcWnNc5effXVZgIlVxCAAAQgAAEIFEpAo4yD2hNB5zSaWYJQkBAkAUhrDAU9F3TOFZYKzRCRNZoAQlCj3du/zGkNn6CKKuzcn/zJn3Tc/xd/8Rcdx2HP2fOaLqapYwQIQKCZBCQw/9Ef/VGqesHWD3Y7fPjwVM8jLjezLJErCEAAAhCAQFkE3K942fZH1Nbf53G/lhr1nL02derUsrJCvA0ngBDUcAf3K3u7d+82v//7v5+q02UrtCzbr371q/3KKulCAAI9InD55Zf3rE459NBDEZd75FeSgQAEIAABCDSFgL7olaUvk/WZRx55pCnoyEePCSAE9Rh4m5L793//955UhH/wB39g9Cl5AgQg0GwCb7zxRuJpp1kbVPa5iy++uNkwyR0EIAABCEAAAqUQSLIGoW1v5NlqvSECBLISQAjKSo7nYglo4WZ9cSdPBZfk2W984xuxtnADBCDQDAISaJLUC3nuGTJkiNGoRgIEIAABCEAAAhBIS+C+++4rva2idg6jgdJ6hvtdAghBLg32CydwzjnnlFoRajTQ22+/XbjdRAgBCFSTgNYC+53f+Z1S6xWtcUaAAAQgAAEIQAACWQmUPSqI0UBZPcNzlgBCkCXBthQC27ZtS/zVryz/wf/P//zPUuwmUghAoLoEzjvvvNKEoMMOO8xoYWoCBCAAAQhAAAIQyEqg7FFBa9euzWoaz0HAI4AQREEoncAXv/jFUjptH/zgB82+fftKt58EIACBahF45ZVXShOY582bV63MYg0EIAABCEAAArUkUNaoIEYD1bI4VM5ohKDKuaR5Br344ovm13/91wsXg2644YbmwSJHEIBAIgJz584tvE5BXE6EnpsgAAEIQAACEEhA4H/+538Kb6toBsUvfvGLBKlzCwSiCSAERfPhakEETj311EIrwg996EPm3XffLcg6ooEABOpGQALz+9///kLrleuvv75uGLAXAhCAAAQgAIEKExg1alShbRVGA1XY2TUzDSGoZg6rq7lbtmwx/+///b/CKsJvf/vbdUWB3RCAQEEEZs+eXVidInGZqaYFOYZoIAABCEAAAhDwCCxdurSwtgqjgShURRJACCqSJnFFEpg+fXohFeGHP/xhRgNFkuYiBNpBQAJzUdNO/+u//qsd0MglBCAAAQhAAAI9JVDUqKCPfexjPbWbxJpNACGo2f6tVO6efvpp8773vS+3GHTrrbdWKl8YAwEI9I/AKaeckrtOQVzun/9IGQIQgAAEINB0AkuWLMndVmE0UNNLSe/zhxDUe+atTvHkk0/OVRF+5CMfMQcOHGg1QzIPAQgMEpDAnHfa6Xe/+93BCNmDAAQgAAEIQAACBRPIOyqI0UAFO4ToDEIQhaCnBDZs2JBLCLrzzjt7ai+JQQAC1SfwqU99KnO9otFAiMvV9zEWQgACEIAABOpM4Cc/+Unmtgqjgers+erajhBUXd801rKPf/zjmSpCjQYiQAACEPATkMCcddrpHXfc4Y+OYwhAAAIQgAAEIFA4gayjghgNVLgriNAYRgRRCnpPYN26dZmEoHvuuaf3xpIiBCBQCwJTp05NXa8gLtfCtRgJAQhAAAIQaASBH//4x6nbKowGaoTrK5kJRgRV0i3NN+qjH/1oqopw5MiRzYdCDiEAgcwEsgjMP/zhDzOnx4MQgAAEIAABCEAgLYG0o4IYDZSWMPcnJYAQlJQU9xVKYPXq1amEoKVLlxaaPpFBAALNIzBp0qTE9QricvP8T44gAAEIQAACVSfwox/9KHFbhdFAVfdmve1DCKq3/2pt/dixYxNVhH/3d39X63xiPAQg0BsCP/vZzxLVKWpYadFGAgQgAAEIQAACEOg1gaSjghgN1GvPtCs9hKB2+btSub333nsTddruv//+StmNMRCAQHUJTJgwIbZeQVyurv+wDAIQgAAEINB0AklHBf3iF79oOgry10cCCEF9hE/SxowZMyay06ZOHQECEIBAUgLLly+PrFM0Gkj3ECAAAQhAAAIQgEC/CPzN3/xNZHuF0UD98kx70kUIao+vK5nTRYsWRVaCDz/8cCXtxigIQKC6BKIaV//wD/9QXcOxDAIQgAAEIACBVhDQ15D1z6mwP0YDtaIY9DWTCEF9xU/i7733nvmrv/qrwEpQC78SIAABCKQlEPV5VsTltDS5HwIQgAAEIACBogmoD/SXf/mXgX2gf/qnfyo6OeKDQBcBhKAuJJzoNYE777wzsBJ85JFHem0K6UEAAg0hMGLEiK56ZeLEiQ3JHdmAAAQgAAEIQKDuBH74wx92tVU0QujnP/953bOG/TUggBBUAye1wcThw4d3VIRTp05tQ7bJIwQgUBKB73//+x11ihpW69atKyk1ooUABCAAAQhAAALpCYwcObKjvcLaQOkZ8kQ2Ao0Ugg4cOGC0Gvv48eO9F+uYY44xK1asMBqCR+gkIFaPP/64mTt3rhkyZIiZPXu2eeuttzpv6sHRd7/73Y5K8LHHHutBqiQBgXgC1CfxjOwdValPrD0f+chHBuqVKVOm2NNsIQABCEAAArUjQHskucuq1h6Jsty/VtDatWujbucaBAoj0DghSGLPwoULzaGHHjrQAdB/gocNG2ZWrVpVGLi6RySxZ8mSJUbr8LiLlPVLCFKF/ed//ueeLSeddFLd8WJ/QwhQnyRzZNXqE2v1HXfcMVC//fKXv7Sn2UIAAhCAAARqRYD2SDJ3VbU9Eme9HRXE2kBxpLheJIFaCEEf+MAHBhrzrmjBfvhK87CBTR3KQJGVWZq4li5dSp0S8aWKOpQdbKSOCyoDn/jEJ9JUBdwLAQhAoNIEguo5zvH7RxmodxmQtlGFgBBEZ4gOMWWgb2WgX5UgQlC9f0BpAOG/sDKAENSvWpV0IQCBMgiE1XWc53eQMlDfMoAQlKK2ZERQfQs6lRS+iyoDKaqBQm9FCKJcRpVLrtW3fCAEFVpVEhkEINBnAvwe1ff3CN/hu7AygBCUomJFCOJFCnuROF/vspGiGij0VoSgepcb3nv8F1YGEIIKrSqJDAIQ6DOBsLqO8/wOUgbqWwYQglJUrH4h6M0334x8WgsP33fffQNfDdPXYtasWcNXwxxqq1evDpwO1K/Foh3T2G0wAf+PVr+y6heCJk+eHGoK9UkomoEL1CcDKNjpMYG77rqr47cMIajHDiA5CECgVAL+dhP9m2jctEei+XC1PwSkXbjvMkJQCj+kFYJSRN3aW5966iljV6h3CyZCUGuLRE8y7pY17fcrpBGC+mVjndKlPqmTt5plK0JQs/xJbiAAgU4CVWk3dVpV3SPaI9X1TZstQwjK4X2EoBzwQh7duHGjGT16dIc6qR8bhKAQYJwuhEBVGjQIQYW4cyAS6pMBFOz0mABCUI+BkxwEINBTAlVpN/U00zkSoz2SAx6PlkYAISgHWoSgHPBCHn311VfNpEmTEIJC+HC6HAJVadAgBBXrX+qTYnkSW3ICCEHJWXEnBCBQPwJVaTfVhRztkbp4ql12IgTl8DdCUA54IY9SUYaA4XSpBKrSoEEIKtbN1CfF8iS25AQQgpKz4k4IQKB+BKrSbqoLOdojdfFUu+xECMrhb4SgHPBCHqWiDAHD6VIJVKVBgxBUrJupT4rlSWzJCSAEJWfFnRCAQP0IVKXdVBdytEfq4ql22YkQlMPfCEE54IU8SkUZAobTpRKoSoMGIahYN1OfFMuT2JITQAhKzoo7IQCB+hGoSrupLuRoj9TFU+2yEyEoh78RgnLAC3mUijIEDKdLJVCVBg1CULFupj4pliexJSeAEJScFXdCAAL1I1CVdlNdyNEeqYun2mUnQlAOfyME5YAX8igVZQgYTpdKoCoNGoSgYt1MfVIsT2JLTgAhKDkr7oQABOpHoCrtprqQoz1SF0+1y06EoBz+RgjKAS/kUSrKEDCcLpVAVRo0CEHFupn6pFiexJacAEJQclbcCQEI1I9AVdpNdSFHe6QunmqXnQhBOfyNEJQDXsijVJQhYDhdKoGqNGgQgop1M/VJsTyJLTkBhKDkrLgTAhCoH4GqtJvqQo72SF081S47EYJy+DurELRnzx6zcOFCM378eKOK9MEHH8xkxf79+71nZ8yYYQ499FBzySWXhMbz1ltvmWXLlplTTjnFDBs2zEtX209+8pNmyZIlRtfLCAcOHDBPPPGEueqqq8zxxx8/kLbyPWrUKDNz5kzPLpt+2RXltm3bzO233+6le9RRR3kc7I+Zjk8//XSzePFis2vXrjJwEGdFCdgyYLf9MjOLEER9coj3HlOf9KvUkm4QAYSgICqcgwAEmkLAtpfsVvmiPUJ7pCnluy35QAjK4ek0QtB7771nNm/e7Ik1VoixlWdaIUgixQ033GBGjBjRIWQECUF79+71RKfhw4d33GvTtttx48aZdevW5aDR+ajSlaBixS6bTthW9t12223m5ZdfNpMmTeqydfbs2ZnFKrGXGPXZz37WE8zCbHDPDxkyxFx66aVm+/btnRnzHYUJV25cYfsjR440Tz31VEeMOtb5sGfc80H+7ojMdyBR7kc/+tGAT4455hizYsUKIz5tDy5X7fcrJBWCqE8ONrb8frPH1CcHSzD1Sb/eZGMQgvrHnpQhAIHyCdjfW7tVm5T+TXfbhPbIwbJIe6T8dzJLCghBWaj96pkkQpBGumjEzZQpU0I790mEIHXiH3/8cTN37lwjkcJWvO7WLwy89NJLZvr06YH3us/Z/SOPPNITTHIg8R597rnnzLRp0zrSHTNmjCdebdq0yUg8kTBz9dVXd4lZGrEUJIRkFYL03wlx0Ygp5VPsFJdGZK1cudLcfffd3nEYU9n9s5/9LFQskV+UnzVr1piLL7441DeWsbbKnzoJEr00qssNOn7++efNddddFxiX8vH5z3/es33nzp3uo5H7Eg6UZ8vB2qMf7VWrVkU+W5WLysMzzzxjzjjjDDN69OguES2PnZaH3eaJK8+zcUIQ9cnBRhb1yWBjk/ok+o3Tb4BGw2q0p/4x4daBGgWqUakaJarfyyJFcYSgaL9wFQIQqDcB216K2tK/Gfytpn9D/6aKbzxCUA6vhAlBUf+tD6owoypKjf5xp5EFPW/PuULQhg0bjEb52GtJtyeffLLZsWNHZiqPPPKIkaBk01Oj+5prrjEaIRQU1LG99tprA0UPG4e2WYQgjeaxQpjsOPfcc0NH+Ojes88+e8BuN22JJRLzknQSJFT9AcQlAAAgAElEQVQcd9xxgfHYOOfPnx+EouPcu+++a84777yOeNThU1lJYkdHZMaYV155xUyePLkjPmuPOkLqLFU1KL/i6o7oEgv/aKo89lsWdpsnrjzPBglB1CfUJ7ZcBm2pT4LfOAnlV1xxRexvi2Wq3whNs/7lL3+ZqY71W4EQ5CfCMQQgUHcCbnvE1p1RW/o39G/8Zb4p/ZssM0LK/Oe7NICodzHpNWkbVQj9m5uRIvdRQtCVV17prYFzzjnnmNNOO61ruKTrkKiKcvny5ebDH/6wt7bPBRdc0CGyuHFo3wpBDz300MCoGjVuTzjhBKPOgkbA3Hvvvd59/mllblzf+973UlAYvFUjlvwikESsOOFC14NGq7g2pRWCNNpm6tSp3kshBjfddFPX6JtByw/uaTSORCnd76at/TQv79atWwfS9sej4yQdNwlnc+bMGbBDXMU3a4gakqmpeKrQqhZULsKm9LVNCKI+OcR7L6lPBv+7aOsW6pPOmkv1hkZxatSYZZRmq/pf04LtunWdsSc/QghKzoo7IQCBehBQ/WrbI0nqVfo39G/8Jbsp/RvNCNHACfU3H3jggcClX4LekaJm3/i5vvHGG15fTv25Rx991MybN8+ELQujdo7+8aXR0lq2xrUTIchPNuI4TAjSI++8806HALJ+/XpzxBFHdMC24KMqSimn+rPh9ddfHxjlYp+3WwlB6jirkMnJGuHy7LPP2kc7tq+99po59dRTA+056aSTTJppR4pY4sfRRx/dEd/Xv/71WPHFGiURRo1vmxf/No0QpNEtmgZg40hjhxr/mnpkn3W3J554YuiIIpsPu5UfJFa4z9t9cRKvqLB27doB8TCNCBUWZ9SIoDRsw+Iv8nyUAGQZtkkIElvqk0NMmveY+qTzjWxLfaK6QwKM6kxbV2TdajRp3BpxnZQ7jxCCOnlwBAEINIOAbY8kqVvp3xivH0T/ZrDsN7k9oj7krbfeGirA2HdGAxUkIJUdggYmSB+QjRKyFJgalsMLUUKQP1qBnjVrVmDjNKqi9MejY43YsYXJ3WpKkqaDqZOsONUojgpar8cdwWPjOvzww42Eq6TBL7woHimNab+8JVUybDpbUrFCeV6wYMEAH4k3aae6RYl2GlmUJMiOqFFOUZ1acRM/cdQLm2QURBKbtA6G4rN+1rYIkSlJ2knuETNNy/CvL+Xaa/fbJgT5+VGf+Il0H1OfHGTSpvpE650VIQLZekZTpbM21hCCut9JzkAAAs0hYOvJqC39m4P+pj1ykENb2iNPP/20mThxYkd/y/+eaMBCL5bl0EwgN23NNnGXa0EIylEnpxGClEzY/L20FaXud53q7qvgqQAmCRppdOGFFwbGdccddySJwrvHLzBIbNCUtrRBQkCYap5UCPJPgVJjPG3YvXt36KirNMKSXrSzzjorkG+YAOMXsqIEo7T5kvp73333DXw1TAuYa5FrpdnvoBFUVgDSAq4qx/ocuFu23f22C0HyF/VJdKmlPjHeu+0K402uT/S7F/SPDZ276KKLvK9Y2unRl19+udFXE906JWxfdbjbaIoudYNXEYIGWbAHAQg0j0BYnemep39z0O+0R9rVHpHXk4hBRbbJwmqYjRs3eh/Yse/lLbfc0nErQlAHjnQHaYUgzdezjnC3aStKLcg8dOjQrrg0ImjLli2pMuFXCq1dsjVJCJoSlkYs8aexevXqrnzJpiRCkCpazV22eVAHQKOe0gbFo46DjcfdSuRK468gPja+oKlmitv+RzvLqKq0ea3K/RLwbrzxRrNt27YBkzS9R5Wk5eVuEYKMN//XZWL305RPwaY+GShyHTvUJx04Kn0QJLqr/pTALD8GBZ3XdTv60r4//q3q/HvuuScoishzCEGReLgIAQjUnIC/rgw6pj0y6GT6N+3r36iNEfQPKvuuqH1R1KyPwZLWuedf1Nr/TiIEdfJKdZRWCAqb0uV3SpwR/lEvtkDZxaLjnnevaxqUpoLZOOw2SVxqSOsT8PYZu00qIrl22H2/cmnjTCIEvfjii+bYY48dsEdrPGh0T5YgxdSm7d8mWZzVTXPFihWBwp3iFT/bUXEXuFbFoQqk7eGFF14wEyZM6PIFQlD4FFHqk8G3hvrk4IL5Ta9P/GsO3HnnnQPz3wdLQ/CeRCR92VINMn9db4+z/HMDISiYN2chAIFmELD1Y9SW9sigr2mPtKM9Mujxg3tR/Um9O1o/OM1yLP744479S0n430mEoDiCEdebIATlEZX8wov9MZDqnTX4lUsbZxIhyD+6SZ9fdxfaTmNTmGgne84880yzb9++xNFFjWyxFYC7uK06JFrJnWC8L/fI97Yc2C1CUDWFIOqT4LeW+iSYSxFn3SnOGk0p4d2K60nj17RZLZ4YJgbpfNrpzghBSelzHwQgUEcCtj0WtfV3OuPymacN4Y87T1z0b/w0g4/p3wRzcc9Gtf/su1Pm4tFawNr2o/TF8CeffNI1j8WiO2ikPGiCEJRHeFm0aFHhHfSs9qjhH7a+kH3RitomEaX8Rckd7eO3Q/G5C0v3Ys6o376qHquTJ0HPzwwhqJpCUNb3V+WP+iT5W0h9MsjKjhqUWJNniHXQ9DK33kn7jwWEoEEfsQcBCDSPgFs/hu33UwiiPXJIV9s5zE/2PP2b4t/TJEKQ+Je1eLQrBAX1nRgRlMPnbRaCNCJGI2Ns5WG3kyZNMqp8s4asFXfUAs/WtqK2J510ktm5c2fqLOoH0a7/E2aLvlKT9itnqQ2p2QNBiyIHVWZ5suX3R5648jy7dOnSjndq8uTJodGF/bjUseFFfUJ9ElrQYy7YkaBZF3V2ow/7D7Lqh7T1PkKQS5Z9CECgaQT87aagY9ojg16nf9PO/k1YWz3ofSljIABC0OA7WPhem4Ug+19Yf0HOsy6PHJS1ogyyJ8k6R4UXiogINbrliiuu6Ojou/yavo5HBJrISwhBwXjCflzq2PAKen/1blCfBPteZ6lPDrK57LLLCptj704zc+tm7af9JwdCUHjZ5QoEIFB/Av46MuiY9sign+nftHPdU7et/qUvfanni0cjBA2+g4XvtVkICvvSUJZhha5jslaUQf/JrZoQpHxqtI9G/QT9YJ566qlmz549Lg72Qz6TzoigZk0Noz7J9qq3vT6xDZw5c+Zk+sR7EHV1XILWCkpb5yAEBdHlHAQg0BQCQe1Y/7k6CkG0R7KV0La3R8KouUKQ9letWhU5O0QzR3RPUcG2k/RuBrVjmBqWg3SbhaCg9TxUyPolBK1Zs6ar8a75lm+//XYOD5fzqFaH1yLR/h/MvGtclGNt/2NlRFCwD9wfF7cs1bHhRX0S7OMkZ9tcn9h/HGh6WFEh7Msu+iLl9u3bEyeDEJQYFTdCAAI1JOC2O8L2aY8MOtb+XvlZxfWb6N8MMqzjnttW177WtHXXhfWXBx0XOUMEIajEUtNmIcgt2G4hjqvQ4tyRtaLUj41rh/bzTiuJszXrdVUC//3f/91lr2yWWstn4zvJIgR18rBHYe9gHRteYXmhPrHeDt9Sn4SzyXIl7DeIqWFZaPIMBCDQVAL+NnfQMe2RQe+H/bbEtXPo3wwyrOOe277VvkLU19bse1TUmrEIQSWWmjYLQVqXwRZWdztr1izvU3RZsRdZUU6YMMFo7ZGqBU3/0mgll5u7P2PGDLNr166qmd03exCCgtG7Py5u+aljw4v6JNjHSc5SnyShlPyesN+gtCNMGRGUnDl3QgAC9SPgtjvC9mmPDPo17LclixBE/2aQa9X33La6FYJkc9TXX+37VMTi0QhBJZaQNgtBQZ1zFdy0/zX1u6fIinLo0KFGc32rFFwVWFPBDjvssEBB6Oqrr/aGD5ZhuzqOGpY4fvx4L+20P9Rl2BQVZ1BZC5rnGhVH3DVb6dpt3P1lXW/rV8OCfEx9El/KqE/iGaW9I+w3aN68eamiQghKhYubIQCBmhGw7aWobdr2ZdB6n4pfbYS0IawujxNeaI+kJX3wftojwdzChCDdrRkgmgYW9g4VsWQIQlCwXwo522YhaP78+YEFd+zYsWbLli2Z+WatuLVOxuGHH95lk+ysUnAXCdMXxH7wgx90rW2kCkGLhaX9AY3Kp6aPbN682fsx9X/Cvsh0omzIei3oRxkhqFmLRVOfZHs7qE+ycYt6Kug3SI2xtPUkQlAUZa5BAAJ1JxDWeXXPp603qyAE0R7JVjJpjwRzixKC9ITLzX137H7exaMRgoL9UsjZNgtBbsG2hVXbvKNwghrhijdOwQ/78TjxxBO9L3UV4vCckbjKr6YZaGTO3r17zVlnndUlYCnPU6dO9YYO5klWFcCSJUvMlClTAtNQOml/qPPYk+VZhKBgamHvYFp/hr07vfwPXFheqE+Cfa+z1CfhbPJcCXofsvyOIATl8QLPQgACVSeg9mPcH+2RQS/SvxksL23q37jtW+37Q9mLRyME+YkXeNxmIWj16tWhPwBBBT0p9qwVZdhz+k/u8uXLkyYfe9/9999vrrvuOvPOO+/E3uveINFHn4fXj6aGAT799NMDl7du3WqOPvroQJ5Z5odGjf4J+tFO+0M9YHiPdhCCgkG7Py6uX9P6M6jjq/h6KQRRn1CfBJfy3p8NKos33XRTakMQglIj4wEIQKBGBNx2R9g+7ZFBh4b1U+L+0R32HP2bYYH9Jrcspi1/g94qbs9tq4f1j91pda797n5W8QwhqDhfdsXUZiHoySefNCNGjAh8CefMmeONdOkCluBEWIUXV1Hu27fPnHnmmYH2FL3yutJRekmD+4KHDfFbtmxZ4BQxjYhYsWJF0qS8+yQEXXnllWbUqFHmnHPOMaeddpo31cytUNz9KlSUURlECAqm4/645PFnFYQg6hPqk+BS3vuzWgvIfZ8k3G/atCm1IQhBqZHxAAQgUCMCbj0Ztp+2fUl7pLsA0L8ZZFLH/o3bVg8TgpTDuA9/6B2zs0kGicTvIQTFM8p8R5uFoJ07d5qTTjqpo8FsfwiOOOIIs2HDhkxcswpBSkz/tbU2+LdZRtb4M2DFmqgX2f+Mju1zsknrAr377rtdt0ksuvTSSwPt12ghjRpKEzRiSRWmDVpDSX7xc9Fx2h9qG2evtghBwaTdHxfXr2n9WYWGF/VJsI+DzlKfBFEp5tyOHTuMpoG571PWhfsRgorxCbFAAALVJODWk2H7tEcGfUf/ZnBqmC0vbejfuG31uP5j1AwRyyxtmwQhaPAdLHyvzUKQRIYw4UKFVZ+DDhI84pyQp6KU+BQmduRdef2ll14yxx13nBd/GpEraB2PMAZRnxI844wzjF7mrOHNN980s2bN6ujg2Eol7Q91VhuyPocQFEzO/XGxvtQ2rT+rIARRnwT72H+W+sRPpNjjhx9+2Fvnzr5PWRqp1iKEIEuCLQQg0EQCtp6M2tIeGfQ8/ZupgX2Qpvdv3LZ6nBCk0lL04tEIQYPvYOF7bRaCBNPfaHZ/DCTIaBRK2hBWUUrEkJgRFbTwsqaluXa4+5qWdeedd5oDBw5ERdN1zR2ul2bam/67rGlpssG/LlBXIr86EVYB5BWyFH2QoCLb0v5Qh9le1vkgu/lqWLO+GqayQ30S/QZRn0TzyXvVv3C/6tzbb789c7QIQZnR8SAEIFADAm77Omw/bfuyCv+YEnraI9EFkPZINB/3alohSP8YXbhwYeByIfY9U59S/xhMEhCCklDKeE/bhaA44SXLwlZhQtCkSZOMrsUFLfSpdXXsy+LfqnF//vnnJ/6SmD65Pm3aNC8+CUlr166NM8G7nmRdoKCI3Of8tqd58YPi9q99YeNP+0MdFHeZ5xCCgum6Py7Wl9qm9WdVGl7UJ8F+1lm3XghbZyzoafc5t4xov631SRAnnfNPn9Xi/vonQNaAEJSVHM9BAAJ1IOD/TQk6pj0y6En6N/uNlukIKidNbo+4bfUkI4JUYqLabpZf0j42QtDgO1j4XlFCkMSLNCFsYVV1mNOGsIopbnFmm46EEXVMbMH0b9WYfu211+ztkVupoPoP7JAhQ7riSzoCRC+PhB6/Hf7j4cOHm2uuucZoypfSdYNGDD3zzDPm4osv7rBFU+EUf1zwq7lp1yey09D8Nut4xowZZteuXXEmBF53KyM37rQ/1IGRl3gSISgYbpg/qU8O8qI+OciB+iT4/XHP+kcD5W2UKm6EIJcw+xCAQNMIuO3IsH3aIwe9TnvkIIc2tkfctnpSIUi03NkoYe9XksWjEYJKrHnTCkFaNyfImWkKhrKjjntQPOedd17qdXm2bNlixo4d2xXf9OnTze7du2PpqXJbsGBB1/OufVp8U8JKVFBDXMKMRuy4z7r7Skfp2eBfENmej1prx43P7kt40loQEydO9LZBQlRS5VU2uNO7tK6QKr604Z577gllkVZYsmm7lZHNu7YIQaarzFlmvd4uXbq0w5bJkyeHmkB9EorG+2oh9ckgH+qTQRZBe+5I0iKm4SoNhKAg0pyDAASaQsBtR4bt078xtEd8Bb5t7RG375X2fUjSn43rEyIE+QpgkYdphCDXEf4KM62AM3/+/I7Ooo0vqXjjMgibBytxSCJRkiDVcu7cuYE2Wds0auib3/ym2bZtW0eUGmHzwAMPmClTpnjPa6vRP/Y5d6sGuqZpfe1rXzMnnHCCt3jzK6+80hGfPXAXVXXjyLKf5r/D/nSvu+46a1Kq7fbt282xxx4bykHzR11RLEnkbmXkckAIqp8QRH1CfZLknbf3UJ9YEt1bd60D1YtJR352x9R5BiGokwdHEIBAswi47ciwffo39G/8pb5t7RG375VWCBI7f7/S/67F/fPK7S8Eza7R+rtunNI2qhAOqYIRcTakEYLcUSIucO3LMUkXfYoaVhdXGPz5iRt2JsEp6cLKScQgm29NywoaffPFL37RaE0erQdk7w3aasSOhKfHH3880j593WvcuHGRcQXF756TrUmHtj799NNevtzns64zsWnTJm8NDzcud1/CWtqFr93KyI0LIah+QhD1yeBnSKlP/DV79zH1STcTnZGYrk+x2vowzcjP4BgHzyIEDbJgDwIQaB4BW29GbenfHGyr0L8ZLP9ta4+4fa8sQpDIRY2i0vunPmFYXw4haLDsFb4XJQTt27fPW9xYAo8W6VVnJaqy1HUJL7pf6/boeQUJMfqPpYaHLVq0KJFIorVt1qxZY6S67ty5c2DkiEbf2LiWLVs2sAhymF0SlvRZv5UrV3rpv/HGG5EMk0zvCkpL6Wi0kApr2JpFem7EiBHm2muv7RpVFGXUc889F5vPIJt0TiLSunXroqL32CqNKB9rFJMYyhdRQb6Wz+TnCRMmRJYXa7O+Sqb7n3/++dj1i9zKyD6vbVjlEWVrL6+xRpDx6gO9G9QngwKQW4bdfeqTg28n9Ul8LeUKqmlGfsbHzNSwJIy4BwIQqB8B279xf3ej9unf0L9pc3vE7XtlFYLUfw9baNu+e2H/yEIIKrGOjRKC1Lm2zsmytZ3zKGEkSbzuos9hXwdKEo/uSbIYtf7DKvFE6wIliVdTwXS/neYUlF8JKeKRZKHmIHdLoFq8eLEZM2ZMIps04kjCjkY5xQX3BYvLbxy/oLzHxWmvBw3389vuVkb2OW1tWfPfX5VjhKDwdcFcP0btWx/nKWOKn/rk4Hx/6hNj6lqf2HrNnXuv/6ZJFCoyMCKoSJrEBQEIVIWA2hNR7Y24a7RHBv+hRf9mkEVYual7/8ZtK2UVgvTux83iEb+gxaPdfmoQS6aG5ahZo4SgHNE24lGpvxq9cPnll3ujmOwCzPpv/THHHOOJSkFTu2xHVQ1zCQCaKmZForxgJCQ99thjXryafmZt0stz1FFHmZkzZ3qCUdavcuW1r+zn3crIrXDtj3LZ6WeNHyEoK7nmPEd9Uj1f1rU+EUm3QaXfGok2Rf3OWE8hBFkSbCEAgSYScNuR2m9LoD1SPU9XuT3i2qb9PMH9B5b//bPH/sWjEYLyEI95FiEoBhCXK0XArYxshaEtQlD91giqVMHCmFYSqGt94g6x1j8msiy8n8ThCEFJKHEPBCBQVwJuO1L7BAj0i0CV2yOubdrPGzTIQlPZ/e+fPfa3axCC8hKPeB4hKAIOlypHwK2MbIWhLUIQQlDlCisGVZ5AHesTjfqR8KOGkv6uuOKKzFOO4xyEEBRHiOsQgECdCbjtSO0TINAvAlVuj7i2ab+I4K5v6H8PdexOd0cIKoJ4SBwIQSFgOF1JAm5l5FYcCEEIQZUssBhVaQJ1rE/cxpN/+HTRsBGCiiZKfBCAQJUIuO1I7RMg0C8CVW6PuLZpv4jg/lPL/x7aY/sBDISgIoiHxIEQFAKG05Uk4FZGtqLQFiEIIaiSBRajKk2gbvWJO5x67ty5iT4GkMcBCEF56PEsBCBQdQJuO1L7BAj0i0CV2yOubdovKkjg0Ze9/e+he6wPN23ZssX70IvOs1h0UfR/FQ9CUMFAia5UAm5l5FYUCEEIQaUWPCJvJIE61Sf6Yua4ceO8BlPQVzXKcBBCUBlUiRMCEKgKAbcdqX0CBPpFoMrtEdc27RcZkiwefcEFF3gfQ0IIKpL8r+JCCCoBKlGWRsCtjNwfcIQghKDSCh0RN5ZAXeqTrVu3mqlTp3oi0PTp08327dt74hOEoJ5gJhEIQKBPBNx2JEJQn5xAsh6BKrdHXNu0X3RwRzv730n/MSOCCqaPEFQwUKIrlYBbGbmVA0IQQlCpBY/IG0mgDvWJ+98yiUE67lVACOoVadKBAAT6QcBtR2qfAIH/397ZhWpxnHG80FLohTehBNJSQgpFvGiDPZQWRWKxqGBoesRz0QvDKRisElJaaUSKCKZVG6iUQkISbEkxIvQiiISUWsXYL6kp2EBIxYNWiKaplYNVW4/1mCnPmjnOmf2a3Z19d2b3N/CyX/P5m9lnn/2/u7NdEQjZHzHrJuttBHP+Q/u8NLcRgjzTRwjyDJTsWiVgGiPTMCAEIQS1OvDIvJcEQrcnIvpMTEwkTwKJCCRPBo0yIASNkjZlQQACoyZg+pGyToBAVwRC9kfMusl6G8Fl8mg5RxGCPNNHCPIMlOxaJWAaI/MCjhCEENTqwCPzXhII2Z6YItDKlSvV2bNnvfTB7du3lXxtbOPGjUomaiwKCEFFdDgGAQjETsD0IxGCYu/NuOsfsj9i1k3W2wraP7HPS3MbIcgzfYQgz0DJrlUCpjEyDQNCEEJQqwOPzHtJIFR7YopA+vOpPjrgzp07av/+/WrBggVKRJ6ygBBURojjEIBAzARMP1LWCRDoikCo/ojwMOsm622GGzduKPkghn1u6m2EIM/0EYI8AyW7VgmYxkgbBVlWFYJkstXdu3erhQsXJsbmkUceUc8//3xrn2PeuXNnyqhlGbMm8Ewest5V+PWvfz2vratXr+6qKpQLgUICIdqTtkSg9957T23dujURgZYsWZJ8jrUQjlKJWGTalbVr15Yl4TgEIACBaAiY9q1LvykaYFS0NQIh+iO6seY9zAsvvKB3t7Ysmjw6697pP//5z7z7DtE2Qgjd3YlVaD1CUAVYRO2cQJ6hPHHihHPdzp07p+RVC9sBkG2Zj6ONeThMI6rLlX/lT5486Vzvsog6X70si9/WcYSgtsiSr28CodkTEYH018Huv/9+JQ7X8ePHa/2OHj2qnnvuOSW2R8RYsTfaNmzfvl3Nzs6W4uSJoFJERIAABCImoG2iXkbcFKoeOYHQ/BETp3kPI+ujCHmTRyMEeaaPEOQZKNm1SmDXrl1zNzP6wi1LMaAuYWZmRm3ZsiUzD52fiEHT09Mu2TnFkQnQduzYkVlm1SeZigrU9dfLorhtHkMIapMuefskEJI9uXDhglqzZk2mndDntI+lCEIiErkEhCAXSsSBAARiJWDb1FjbQb3jJxCSP2LSlLkEZU5Bfa7Ia1s3b940o7Synjd5NEKQZ9wIQZ6Bkl1rBGxjpI2SLLdt2+b0D/elS5fU8uXL5wyamYe5vm/fPm/tuHbtmlq/fn1mma4ClktlzPrLelcBIagr8pRbhUBI9kQmgs57StE+r5tuj4+POwvdCEFVRhRxIQCB2AjY9jS2+lPffhAIyR+xiZ4/f17JXIX6XJF7KLmXGkXImjwaIcgzeYQgz0DJrjUCeY8JinESwyDvlJaFqakpNTY2NmfQtGGzl+vWrVNXr14ty670eJ6ircvz+UlonadellaupQgIQS2BJVuvBEKxJ2+//bZaunRpqU3S53XT5d69e505IgQ5oyIiBCAQIQHbnkbYBKrcAwKh+CM2Svkje9OmTSn/RJ5ekjcsRhHsyaMRgjxTRwjyDJTsvBG4deuWunLlSiLwyM2LntjZvnDrbTkuc2qIICTpJL0dRNwRkUenyVtmGRo7r6zt69evK5mI+tSpU+rVV19VGzZsmDc3R1Z5Um/5nLO8riHKu7yWJip41WDnXTW9r/gIQb5Iko9PAiHak9OnT8/7p80+h31vL1q0SInw5BoQglxJEQ8CEIiRgG1jY2wDdY6PQIj+iK6T3D/JvcjLL7+sli1blnu/tGrVquQ+5913303uufLuu3z0jjl/Ytb9GZNFN6CMENQAHklbJSDz59gX6SrbefPvHDx4sFSckXLy0hc12pxQrUpdzbhZRq6oTH3MzEPWuwoIQV2Rp9wiAiHak7zJIe1z2df25ORkpS8jIgQVjSiOQQACsROwbWvs7aH+cRAI0R9pWic5l+rcN7n2mPzJL/dHWfdICEGuFDPiIQRlQGFXrwncuXNHHT58WK1YsSIRmmR55MgRJe/oPv3003PiU5sGrQ3AoTg0CEFt9C55hkqgr/ZEeCMEhTrqqBcEIOCDQCh+k4+2kAcE+uyP6Kk2ZHqPM2fOzOtshKB5OKptIARV40XsfhPQ/9D7/rT7KKiF4tAgBI2itykjBgIx2xPhixAUwyijjhCAQF0CofhNdetPOgi4EojdHylqJ0JQEd4YM3sAACAASURBVJ2SYwhBJYA4PCgCMheROAZLlixR8jnnmEIoDg1CUEyjhrq2SSBmeyJcEILaHB3kDQEIdE0gFL+paw6U338CsfsjRT2EEFREp+QYQlAJIA4PhoD5+caNGzcmr4rF1PhQHBqEoJhGDXVti0Ds9kS4IAS1NTrIFwIQCIFAKH5TCCyoQ38J9MEfKeodhKAiOiXHPvaxj83NiSIGUb4qwg8GQxwDn/3sZ9XHP/7x5Hz49Kc/Hd15EIpD88Mf/nCeTfnMZz4THcshjn/a7Nfux25P9Hgw7cpDDz1U4lFwGAIQgEA8BEz7xj2Q32ugvoaw7J5rX/yRorFknsuibYQQuvtsT4XWm+BY/8i8G1h4wCPmMVDBDHiNagtBMTOk7tgAxsC9MfCpT33Kq60gMwhAAAJdEsC+37PvsIBFn8ZAl3ZFl40Q9BFOqj6dVLQlrvGsDdGolwhBcY0Tzmv6y3UMIASN2ppSHgQg0CYBV9tHPK6TjIG4xkCbdsM1b4QghCCeMGIMdDYGXA2V73gIQXFdLHFu6C/XMYAQ5Ntakh8EINAlAVfbRzyuk4yBuMZAl3ZFlx2FEKTnRNED/MUXX1T86jP40Y9+pGQeha9//etwZCyNdAzoc1gvtSEa9dIWglavXj1SDn2yX9iT+ra4T+Ogy7ZoeyLLxYsXj9qcUB4EIACB1giY9k3Wu7S1oZeNP4I/EvIYNc9l0TZCCFEIQXw1zO9Q2bdvX/IEyM6dO/1mTG4QKCFgGkFZ7yrw1TB/5LEn/liSU3UCfDWsOjNSQAAC8RAIxW+KgRj+SAy9NMw68tWwBv2OENQAnpV0enpajY+PIwRZXNgcDYFQHBqEID/9jT3xw5Fc6hNACKrPjpQQgED4BELxm0InhT8Seg8Nu34IQQ36HyGoATwr6aFDh9SCBQsQgiwubI6GQCgODUKQn/7GnvjhSC71CSAE1WdHSghAIHwCofhNoZPCHwm9h4ZdP4SgBv2PENQAnpH0H//4h1qzZs3cxMC8GmbAYXUkBEJxaBCCmnc39qQ5Q3JoTgAhqDlDcoAABMIlEIrfFC4hpfBHQu4d6iYEEIIajAOEoAbwPkx6+/ZttWfPnjkRSC4sCEHNuZJDNQKhODQIQdX6zY6NPbGJsN0VAYSgrshTLgQgMAoCofhNo2hrnTLwR+pQI82oCSAENSCOENQAnlLqgw8+UAcOHJh7JUxfVBCCmnEldXUCeuzpZfUc/KRACKrPEXtSnx0p/RNACPLPlBwhAIFwCGh/SS/DqVn3NcEf6b4PqIEbAYQgN06ZsRCCMrE473zjjTfUgw8+OO9pILmgIAQ5IySiJwLakdFLT9lWzgYhqDKyuQTYkzkUrARAACEogE6gChCAQGsEtL+kl60VFGHG+CMRdtpAq4wQ1KDjEYLqw/vTn/6kHn744ZQIJBcUhKD6XElZj4B2ZPSyXi7NUyEE1WOIPanHjVTtEUAIao8tOUMAAt0T0P6SXnZfozBqgD8SRj9QCzcCCEFunDJjIQRlYinceefOHfXaa69lPgmkLyYIQYUIOdgCAT329LKFIpyyRAhywjQXCXsyh4KVwAggBAXWIVQHAhDwSkD7S3rpNfMIM8MfibDTqDKTRTcZAwhB1ehdvnxZbd26NTUnkL6IuCzlKaIzZ84UFizG+PDhw2rZsmXJE0crVqxQx44dS+YkKkzIwcESsMdeVyAQgtzJY0/cWRFz9AQQgkbPnBIhAIHREQjFbxpdi/NLwh/JZ8ORsAnwRFCD/kEIcod36tSpwqeA7AtK3naZEJQ3QZvMRSTv7MYQpA3nzp1TTz75pBobGysVvmJoU+h1tMdbV/VFCHIjjz1Jc7px44b6zW9+ozZv3pyI4AsWLJh79fYrX/mKmpycVAcPHkw+Zys2htAuAYSgdvmSOwQg0C2BUPymbikohT/SdQ9QfhMCCEEN6CEEucP717/+pY4fPz7v98orr6jPfe5zczcr+qLyxBNPzItnpvv973+vrl27lluwlLN69epUnpK33AjJzVKoQQtA3/rWt+aemioTvkJtS2z10mNPL7uqP0KQG3nsyT1OV69eVc8++6y67777Mu2eHtN6KQLR448/rv7617/ylOQ9jN7XEIK8IyVDCEAgIAL6mqKXAVVtpFXpuz9y5coVtWrVKif/Qo+FNv98l+lDdDl1ltIWaRPhLgGEoAYjASGoATylkiddsiaMbjJHkLw2lpWnGItQT34RgN555x1lCkDauCEENRtjrqk1b710Tec7HkJQfaJ5535f7YnYjT/+8Y/qS1/6Ui2nSAShZ555Rv33v/+tD52UuQQQgnLRcAACEOgBAe0v6WUPmuStCX3yR2S6jenpafX++++r3/3ud8kHfbK++KzHgV5++ctfTu5tvEH9MKPr168nQo6IOadPn1Z79+5VCxcuzPSD9B9f8rS01F/SSFukTYS7BBCCGowEhKAG8FoSgoqeCNq4cWNQNz1FApA2pAhBzcaYa2rNWy9d0/mOhxBUn2gbjleo9kRshwgNLs6YHtN5y/Xr1yuZ34DglwBCkF+e5AYBCIRFwL6mhFW7bmvTd39E/kDav39/rgCjx8Zjjz2WCDBt98bFixeVlKXLlaWIQFJHRJ9i+ghBxXwKjyIEFeIpPdiGoZRCZR4MMQCmQWjzMcXShloR5CZOXsv45je/Oa+OZn31OkKQBa+lTc1bL1sqpjRbhKBSRLkRhmRPZL4zHyKQHu8TExMjcdZyO6+HBxCCetipNAkCEJgjoK8fejl3gJVW3ngQrKHd35w9e1atXLmy8F5G5i0cxbQcR44cmVePp556Ss3MzDAaSwggBJUAKjqMEFREp/xYWzduov7+9re/nftq2KOPPqpOnjwZxHwY8gqYFoBkAlcxoIsXL55nvPRFVZYIQeXjyEcMk7msdxUQguqTH4o9EcdLHrm2x6zs27Fjh3rttdeSOdbEKfrxj3+s5KuJdtys7S1btuA01R9+qZQIQSkk7IAABHpEwL6O9KhpjZsyFH9EQLmIQXv27FG3b99uzLUog6mpqeQDO3pc/vKXvyyKzrEPCSAENRgKCEEN4LX0alizGrWfWi4OL774ovrnP/85V5gYRzGS2niZS4SgOUytrpjMZb2rgBBUn3xbjlf9GvlPKf9uiWBjjleZ+FkEZnnSMCvoV1AlnpnOXpenKA8dOpSVBftqEEAIqgGNJBCAQDQE7GtINBUfQUWH4I+YGMUHyfqDSo8R8S8OHDiQ66eYedVdtye1/sMf/lA3q0GlQwhq0N0IQQ3gDVQIyiN26dIltXz58tSNGkJQHjG/+/XFSi/95u6eG0KQOys75hAcrzfffHPulTB5NexXv/qV8/vvIiL97Gc/S702q8e8LMfHx5OJFG22bFcngBBUnRkpIACBeAiY1w5ZJ9wjMAR/5F5r767JEzj2mDC3Fy1apN566y07mbdtETQ2bNgwVweEIDe0CEFunDJjIQRlYnHeOURDmQdHJl6TyaxNoynrCEF5xPzut7n7zd09N4Qgd1Z2zL7bk9nZWbV9+/bERogIdOzYscr/rslrszJ5oj2Hmh7/sv/o0aM2WrZrEEAIqgGNJBCAQDQE9HVDL6Op+Agq2nd/JAvhK6+8krqH0WNDL9ucPNq8j/r85z+v/va3v2VVk30WAYQgC0iVTYSgKrTScYdoKNMU7u6Rm7xt27aljChCUB4xv/v1RUov/ebunhtCkDsrO2bf7Yl+arDpI9ZZr5fpcS9LsUNijwjNCCAENeNHaghAIGwC5nVD1gn3CPTdH7nX0ntrLkKQjJO2Jo82hSDune71S9kaQlAZoYLjCEEFcBwODdFQFmHZuXMnQlARoBaPheLQIATV7+S+2xP9RQwfkzrnsZLzYN26derq1av1O4KUCQGEIAYCBCDQZwKh+E0hMs67xoqf39fgKgTJuGlj8miEoHojCyGoHrckFUJQA3jMEZSChxCUQjKyHaE4NAhB9bu8747Xrl27lK937M3XzOyxv2rVKiWTLhKaEUAIasaP1BCAQNgE7GtH2LUdbe367o9k0TSFoO9973sjnzwaISirV8r3IQSVM8qNgRCUi8bpwBANZREYhKAiOu0eC8WhQQiq3899tifawXnqqae8feJdJlLMmiuIR6rrj0EzJUKQSYN1CECgbwRC8ZtC5NpnfySPtykEyfobb7wx93ELe6zItsx1KHF8Be0nSd74Me5UEYLcWaViIgSlkFTaMURDWQQIIaiITrvH7ItUu6Xl544QlM+m7Eif7Yn+LKq8HuYrTE1NqbGxsdTrqF/72tfU5cuXfRUz2HwQggbb9TQcAoMgEIrfFCLsPvsjebxtIeiDDz5IPhmf9YeTHjvyyXn59LyPgBBUjyJCUD1uSSqEoAbweDUsBQ8hKIVkZDv0RUkvR1awVRBCkAWkwuYQHa8KeFJRtbikx7xe8mpYClWtHQhBtbCRCAIQiISAvmboZSTVHkk1h+iP2EKQgL59+3YyH5AeI1nLiYkJNT093bhfEILqIUQIqsctSYUQ1AAeQlAKHkJQCsnIdtgXp5EVbBWEEGQBqbA5RMerAp5U1DwhSL7ocfPmzVR8dlQjgBBUjRexIQCBuAiE4jeFSG2I/kiWECR98/777yv5bLw9XsxtH5NHIwTVOxMQgupxS1IhBDWANwIh6MaNG8ljicuWLUsMkMyJEXJACOqud8wLkqx3FRCC6pNv2/GKzZ6UkcwTgvbu3VuWlOMOBBCCHCARBQIQiJZAKH5TiACH6I/kCUHSP/L6l7wGZo8ZvS2vjx04cEDJ62R1A0JQPXIIQfW4JakQghrAa0kIEiPy97//XYmoIhORaSMjS4SgZv3V59TmOJH1rgJCUH3ybTheMduTMpJZQpA4Y6HbybJ2hXIcISiUnqAeEIBAGwRC8ZvaaFvTPIfojxQJQcKz7cmjEYLqjVqEoHrcklQIQQ3geRaCxAC8/vrr6tFHH50n/pgXqtBvcHgiqNl4apLaHCcIQU1IdpfWp+PVB3tS1hNZvMbHx728q19W9hCOIwQNoZdpIwSGSyAUvynEHsi6vgov8fOrhlj8kTIhqO3JoxGCqo6su/ERgupxS1IhBDWA50EIKvq33r5AyTZCULP+6nNqe7x01VaeCKpPvqnj1Td7UkbyxIkTKdF83759Zck47kgAIcgRFNEgAIEoCYTiN4UIb4j+SJkQJP3kMnm0zCck8wpVDQhBVYndjY8QVI9bkgohqAE8T0LQT37yE7V48WL1/e9/X23atCn1Oph5oUIIatZffU5tjhNZ7yogBNUn78Px6pM9KSMpcwGZ417e3z9//nxZMo47EkAIcgRFNAhAIEoC5vWjS78pRHhD9EdchCDpK5lvUT5KYY8fc1uOS7wqASGoCq17cRGC7rGovIYQVBnZvARNDaVk9r///W/e5GJvvfWWWrRoUaaBQQiah58Ng4B5AerSoUEIMjql4ir2xB2YfKpVXgMzx/1Pf/rTebbUPTdiZhFACMqiwj4IQKAvBMzrR5d+U4g8h+iPuApB0l8XL15UX/3qV+f5IPZ4quqTIATVOxMQgupxS1IhBDWA5+GJoKzSZUBv2LAh07ggBGURY58QsC9AXVFBCKpP3ofjZZcesz2x22Ju//nPf1YPPPDA3LgXh0wcM4I/AghB/liSEwQgEB6BUPym8MgoNUR/pIoQJH3me/JohKB6ZwJCUD1uSSqEoAbwWhKCpEZZky7LBQshqFl/9Tl1KA4NQlD9UdaG4xWzPckjOTMzo7Zs2TInAsmXwg4ePJgXnf01CSAE1QRHMghAIAoCofhNIcIaoj9SVQjyPXk0QlC9MwEhqB63JBVCUAN4BULQtm3b1OzsbO3M7bkv9MUKIag20t4n1GNEL7tqMEJQffJ5jtdQ7UkeSfv12SeeeKLyu/h5ebP/HgGEoHssWIMABPpHQPtLetm/FtZv0RD9kapCkND1OXk0QlC98YoQVI9bkgohqAE8pdTU1JQaGxub+2daX0zWrVunrl69mspc1OOXXnpJTU5OFt64mMZI5ylLhKAUUnZ8SMAcJ7LeVUAIqk8ee1LOzn4aSCaIfuedd8oTEqMyAYSgyshIAAEIREQgFL8pRGRD9EfMey9Zdw2+Jo9GCHIlPj8eQtB8HpW2EIIq4UpFvnLlilq1alVKCJK5K44dO5aKr98nFQe7KJjGyLxQIQQVURv2MXOcIATFORawJ+X9Jp+M13MDySthBw4cYILocmy1YiAE1cJGIghAIBICofhNIeIaoj9i3ntVEYKk/+Rz8fLZeHtMmdt79uxJniDK62+EoDwyxfsRgor5FB5FCCrEU3rw1q1b6rvf/W7mib9w4UL1i1/8IjEO8knj3bt3q/vuu09NTEwo+eJNUTCNkWlEEIKKqA37mDlOZL2rwBNB9cljT4rZid0U+6nH+jPPPFPoVBXnxtEyAghBZYQ4DgEIxExAX0v0Mua2+K77EP0R896rqhAk/OXpZHlKWY8ne1n25xVCUL1RjBBUj1uSCiGoAbwPk9rOsn3im9sPPvigevPNN0sLNY2RmR4hqBTdYCOY40TWuwoIQc3IY0+y+clrtfIpVj3O5Z83+QeO0B4BeyyuXbu2vcLIGQIQgMCICejriV6OuPjgi7OvAZpT1rIP9zfmvVcdIUg69NChQ0oEnyxGsk845d3LIQTVOyUQgupxS1IhBDWA92HSf//73+rxxx/PPem1MZCT//XXX3d6jcE0Rjq9LPOMR/NW+Mkh62tnDz/8cPIZSj8lkEseAXOcyHpXASGoGXnsSTY//VqtjG3mBcpm5HuvfROAEOSbMPlBAAJdEgjFb+qSQVHZQ/NHzHuvukJQk8mjEYKKRmP+MYSgfDalRxCCShE5Rbh48eK8Vxbsi8vSpUuTJ4HkX22XYBojMy+EIBd6w4xjjhNZ7yogBDUnjz2Zz9B8914EdRGFCO0TQAhqnzElQAAC3REIxW/qjkB5yUPyR8x7r7pCkBCtO3k0QlD5eMyKgRCURcVxH0KQIyiHaPI1G7kJljksZC4geTTwG9/4hhJnWk7uKsE0RuaFCiGoCsVhxTXHCUJQ/H2PPbnbh6ZDJSKQ2FNXQT3+UdBtCxCCuuVP6RCAQLsEQvGb2m1l89yH4o+Y915NhCAhbv6BZY8zvW1PHo0QVG+sIgTV45akQghqAK/FpKYx0gZDlghBLUKPPGtznMh6V4Engroin19urPbEfMS6bJLF/NZzpC4BhKC65EgHAQjEQCAUvykGVr7qGLI/YtZN1puGqpNHIwTVI44QVI9bkgohqAG8FpOaxsi8UCEEtQg98qzNcYIQFHlneq5+jPZEnvqRT8OLACS/Z599li+EeR4XZdkhBJUR4jgEIBAzgVD8ppgZVq17yP6IWTdZ9xHM+Q3t8Sbb5uvuCEH1iCME1eOWpEIIagCvxaSmMTINB0JQi9Ajz9ocJ7LeVeCJoK7I55cboz0xnSf78en8lnLEJwGEIJ80yQsCEAiNQCh+U2hc2qxPyP6IWTdZ9xHMP7Xs8aa39QcwEILqEUcIqsctSYUQ1ABei0lNY6QNhSwRglqEHnnW5jiR9a4CQlBX5PPLjc2emI9Tf+c730kmXsxvHUfaIoAQ1BZZ8oUABEIgEIrfFAKLUdUhZH/ErJus+woi8Dz55JOFX5ceHx9XFy5cUBs3bkzi8cVld/oIQe6sUjERglJIgthhGiPzQoUQFET3BFkJc5wgBAXZRZ1VKiZ7cubMGSVfWZQxvHnzZkSgzkaNSibmNu0Kn4/vsDMoGgIQ8E7AtG9d+k3eGxZwhiH7I2bdZN1ncJk8+gc/+IGanJxECKoIHiGoIjAzOkKQSSOcddMYmRcqhKBw+ii0mpjjpEuHhieCQhsZSsViT+QztY899ljiBK1fv15dvnw5PJgDqhFPBA2os2kqBAZIIBS/aUjoQ/ZHzLrJuu9gPu1sjz17myeC3OkjBLmzSsVECEohCWKHaYxM44AQFET3BFkJc5zIelcBIagr8vnlxmBPzH/LRAySbUK3BBCCuuVP6RCAQLsEQvGb2m1lWLmH7I+YdZP1NoI5/6E9/sxthCB3+ghB7qxSMRGCUkiC2GEaI9MwIAQF0T1BVsIcJ7LeVUAI6op8frmh2xMRfSYmJpIngUQEkieDCN0TQAjqvg+oAQQg0B6BUPym9loYXs4h+yNm3WS9jeAyebSMS4Qgd/oIQe6sUjERglJIgthhGiPzQoUQFET3BFkJc5zIelcBIagr8vnlhmxPTBFo5cqV6uzZs/kNqXDk9u3bSr42JhMvykSNhOoEEIKqMyMFBCAQD4FQ/KZ4iDWvacj+iFk3WW8raP/EHn/mNkKQO32EIHdWqZgIQSkkQewwjZFpGBCCguieICthjhNZ7yogBHVFPr/cUO2JKQLpz6fmt8L9yJ07d9T+/fvVggULkgmP3VMS0ySAEGTSYB0CEOgbgVD8pr5xLWpPqP6I1Nmsm6y3GW7cuJF8EMMeg3obIcidPkKQO6tUTISgFJIgdpjGSBsFWVYVgmSy1d27d6uFCxcmr1088sgj6vnnn2/tSzw7d+5MyjHrjDEbzZAymct6VwEhqCvy+eWGaE/aEoHee+89tXXr1kQEWrJkSfI51nwyHCkigBBURIdjEIBA7ARC8Zti51il/iH6I7r+5j3MCy+8oHe3tiyaPJp7J3fsCEHurFIxEYJSSILYkWcoT5w44Vy/c+fOKXnVwr7QybbMx9HGPBymEdXlyr/yJ0+edK43EesR0Lz1sl4uzVMhBDVn6DuH0OyJiED662D333+/Eofr+PHjtX5Hjx5Vzz33nBLbs3r16kQA0ufA9u3b1ezsrG+cg8kPIWgwXU1DITBIAvpaoZeDhDDiRofmj5jNN+9hZH0UIW/yaIQgd/oIQe6sUjERglJIgtixa9euTAFHDKhLmJmZUVu2bMnMQ1/wRAyanp52yc4pjkyAtmPHjswyqz7J5FQgkeYR0P2ql/MOjnADIWiEsB2LCsmeXLhwQa1ZsybTTuix62MpArSIRIT6BBCC6rMjJQQgED4B+1oTfo3jr2FI/ohJU+YSlDkF9ZjYvHmzunnzphmllfW8yaMRgtxxIwS5s0rFRAhKIel8h22MtFGS5bZt25z+4b506ZJavnz5nEEz8zDX9+3b5629165dU+vXr88s01XA8laZAWZk9qusdxUQgroin11uSPZEJoLOe0rRHr9Nt8fHx70K3dl0+70XIajf/UvrIDB0AvZ1Zug82m5/SP6I3dbz588rmatQjwm5h5J7qVGErMmjEYLcySMEubNKxUQISiHpfEfeY4JinMQwyDulZWFqakqNjY3NGTRt2OzlunXr1NWrV8uyKz2ep2jr8vgkdCnCxhE0a71snGHNDBCCaoJrKVko9uTtt99WS5cuLbVJevw2Xe7du7closPJFiFoOH1NSyEwRAL2dWaIDEbZ5lD8EbvN8kf2pk2bUv6JPL0kb1iMItiTRyMEuVNHCHJnlYqJEJRCMvIdt27dUleuXEkEHrl50RM72xcovS3HZU4NEYQknaS3g4g7IvLoNHnLuobm+vXrSiaiPnXqlHr11VfVhg0b5s3NkVWe1Fs+5yyva4jyLq+liQpO8EPAZu4n1+q5IARVZ+YzRYj25PTp0/P+abPHqu/tRYsWKRGeCM0IIAQ140dqCEAgbAL2tSfs2sZXuxD9EV0nuX+Se5GXX35ZLVu2LPd+adWqVcl9zrvvvpvcc+Xdd/noHXP+xLr3Zz7qEVseCEENegwhqAE8T0ll/hz7YlRlO2/+nYMHD5aKM1JOXvqi5pkTqlWpqxkXI1dEuPoxk62sdxUQgroif7fcEO1J3uSQ9pj1tT05OdnalxG77d3Rlo4QNFrelAYBCIyWgH3NGW3p/S8tRH+kaZ1kzNS5b3LtbfmTX+6PuEdyJaYUQpA7q1RMhKAUkt7suHPnjjp8+LBasWJFIjTJ8siRI0re0X366afnxKc2DVpvYEbQkFAcGoSgCAZLjSpiT2pAizwJQlDkHUj1IQCBQgKh+E2FleRgikCf/RE91YZM73HmzJlU29mRJoAQlGbivAchyBlVryLqf+j5tHt/ujUUhwYhqD9jyrUl2BNXUnHFQwiKq7+oLQQgUI1AKH5TtVoTu4gA/kgRnX4eQwhq0K8IQQ3gRZxU5iKSC+CSJUuUfM6ZED+BUBwahKD4x1LVFmBPqhKLIz5CUBz9RC0hAIF6BELxm+rVnlRZBPBHsqj0ex9CUIP+RQhqAC/SpObnGzdu3Ji8KhZpU6i2QSAUhwYhyOiUAaxiT/rbyQhB/e1bWgYBCKi5KRK0/wSTuAngj8Tdf3VrjxBUl5xSCiGoAbxIk8rXdOSrOnLhE0ef0A8C2pHRy65ahRDUFfluysWedMN9FKUiBI2CMmVAAAJdEdD+kl52VQ/K9UMAf8QPx9hyQQhq0GMIQQ3gRZh0dnZW7dq1KxGBJiYmkk+4R9gMqpxBQDsyepkRZSS7EIJGgjmIQrAnQXRDa5VACGoNLRlDAAIBEND+kl4GUCWqUJMA/khNcD1IhhDUoBNtIegvf/mL4tdfBi+99JJ64IEHkt/Pf/5z+rpH4107MnrZwCw0SpolBGFT+mlTsCf97Fd9viIENTKFJIYABAInoP0lvdS2j2V81zb8kfj6zOd5ps9hWYq2EUL4SAiVKKuDLQSZIFn/SOr9YZjAJJYxUHbut3XcFoJi4UU9ObcZA8VjYO3atW2ZDfKFAAQgMHIC2Pximw8f+MQ4BhCCKphShCBO8hhPcupcPm4rmAGvURGCyvuG8QujGMcAQpBXU0lmEIBAxwRitMPUGf+BMVA8BhCCKhhWhKDiwcTJBp9Yx0AFM+A1KkIQ50ys5wz1Lh67CEFeTSWZQQACHRPA5hfbfPjAJ8YxgBBUwbCOjY0pfv1j8IUvfEF98pOfVB/96EfVJz7xCfXQ0XF9EQAAAklJREFUQw+pL37xi/T1gMZ7BTPgNaoIQdiUftkU7Em/+rPu+YkQ5NVUkhkEINAxgbq2kHTdXRPxR7pjH9O479i0JMVHMUdQCKCog38CZ8+eVd/+9rfVkSNH1MzMjP8CyBECEBgMAezJYLqahkIAAhCAAASCJYA/EmzXUDGLAEKQBYRNCEAAAhCAAAQgAAEIQAACEIAABCDQVwIIQX3tWdoFAQhAAAIQgAAEIAABCEAAAhCAAAQsAghBFhA2IQABCEAAAhCAAAQgAAEIQAACEIBAXwkgBPW1Z2kXBCAAAQhAAAIQgAAEIAABCEAAAhCwCCAEWUDYhAAEIAABCEAAAhCAAAQgAAEIQAACfSWAENTXnqVdEIAABCAAAQhAAAIQgAAEIAABCEDAIoAQZAFhEwIQgAAEIAABCEAAAhCAAAQgAAEI9JUAQlBfe5Z2QQACEIAABCAAAQhAAAIQgAAEIAABiwBCkAWETQhAAAIQgAAEIAABCEAAAhCAAAQg0FcCCEF97VnaBQEIQAACEIAABCAAAQhAAAIQgAAELAIIQRYQNiEAAQhAAAIQgAAEIAABCEAAAhCAQF8JIAT1tWdpFwQgAAEIQAACEIAABCAAAQhAAAIQsAggBFlA2IQABCAAAQhAAAIQgAAEIAABCEAAAn0lgBDU156lXRCAAAQgAAEIQAACEIAABCAAAQhAwCKAEGQBYRMCEIAABCAAAQhAAAIQgAAEIAABCPSVAEJQX3uWdkEAAhCAAAQgAAEIQAACEIAABCAAAYvA/wG9v8BKkWjZPgAAAABJRU5ErkJggg==;" vertex="1" parent="7VG0Se6K9YWMU1WsLbms-165">
          <mxGeometry x="10.589999999999975" y="53.58000000000004" width="168.82" height="60.42" as="geometry" />
        </mxCell>
        <mxCell id="7VG0Se6K9YWMU1WsLbms-372" style="edgeStyle=orthogonalEdgeStyle;rounded=0;orthogonalLoop=1;jettySize=auto;html=1;exitX=0.25;exitY=1;exitDx=0;exitDy=0;" edge="1" parent="1" source="7VG0Se6K9YWMU1WsLbms-168">
          <mxGeometry relative="1" as="geometry">
            <mxPoint x="478.0344827586207" y="650" as="targetPoint" />
          </mxGeometry>
        </mxCell>
        <mxCell id="7VG0Se6K9YWMU1WsLbms-168" value="Cross and Mutation&lt;br&gt;&lt;div style=&quot;text-align: left;&quot;&gt;&lt;span style=&quot;font-size: 12px; background-color: initial;&quot;&gt;1.Dynamically adjusted mutation points&lt;/span&gt;&lt;/div&gt;&lt;font style=&quot;font-size: 12px;&quot;&gt;&lt;div style=&quot;text-align: left;&quot;&gt;&lt;span style=&quot;background-color: initial;&quot;&gt;2.Mutation probalitity based on conflict degree&lt;/span&gt;&lt;/div&gt;&lt;/font&gt;" style="rounded=0;whiteSpace=wrap;html=1;fontFamily=Times New Roman;fontSize=13;verticalAlign=top;" vertex="1" parent="1">
          <mxGeometry x="420.13" y="563" width="230" height="120" as="geometry" />
        </mxCell>
        <mxCell id="7VG0Se6K9YWMU1WsLbms-203" value="" style="shape=image;verticalLabelPosition=bottom;labelBackgroundColor=default;verticalAlign=top;aspect=fixed;imageAspect=0;image=data:image/png,iVBORw0KGgoAAAANSUhEUgAAAaIAAAB6CAIAAAByc8DOAAAABmJLR0QA/wD/AP+gvaeTAAAACXBIWXMAAA7EAAAOxAGVKw4bAAAgAElEQVR4nO2dbWgb17rv/730bBTIBhlyYAzZkNmkEIUWLNMNlmk/eIIvWKFwM8EHKuN9cWenkCoptIo3pHL6QWeSDTmyCzlyC9lS9qVhVEiQAglSIL6afAiMAi4zOaRXCjhXE3BgBDGMwLnMQMKe+2EkW6+249iSI60f+RCvmdGsNS//edZaz3qe9yzLAoFAIHQv/63TFSAQCITdhcgcgUDocojMEQiELofIHIFA6HKIzBEIhC6HyByBQOhyiMwRCIQuh8gcgUDocojMEQiELofIHIFA6HKIzBEIhC6HyByBQOhyiMwRCIQuh8gcgUDocojMEQiELofIHIFA6HKIzBEIhC6HyByBQOhyiMwRCIQuh8gcgUDocojMEQiELofIHKHLMUsl9VE6fidv1hYWn2TTN0W1Y/UitA8ic4RuxxRn3cdjRYejplRNfD18fBH9HaoUoZ0QmSN0OY6Xeh5u75/omkKHri7A/+mgo9VhhC6CyByhyykupkXq5PBAbelvWQHs8EfOztSJ0F7e73QFCAQAMJ8p6fuiugIAcPS7PvUMHzKlm9rgKYYyi0o2p1ft3PcBQ78UZa2q6F/owU9oJ8zir1JutVy27w+DnsOOnJLEpN9dUtO3kvkVR7/nJPsJpSliccDrOtSm1hE6jEUgdBT9sRAYoagPvYFrmZym67qWS4fZwwBATSU0e6dXucgYAGCIz7yoHKlGWQCAJ5TRX1X9YNIPUMwlu1DiKbBxzVrNRc4GU+Wf04RxUCGpja0kdBIic4QOYshzXgqgp6K51dotS1Ev4LmSWysoXGUAYLIifJZlWYXoKAD4bmjVh2pxFkO8bFiWZVlK2A0mkpXC01Wn0FN+IHDP2I0mEfYgZGyO0CnM7L8zg9+mMcILVzjX/tqNh0/6T1ODh9cnQvsoFwBk1aqual/fQQBQi9U9WjV1XfJ/53c7AEB9LCnI8SeGRRezfoonSgLsoItMP/QKROYIncFcmGG/z4JiZuaCnv2N250uz8TwB+tTBM5/7QeAp+a6+9uKJN4FAPXlelnpzuxFc4b7zD6wlM8mcTYmfOtOX0kqlX2UbKI46vUc3OkmEfYqROYIncDMzv51tgjQU0FuoPku9GTYd7jq74M0CwA5rVguUK7PpvdTAIp5da0sdintnZ5wl88iiz/BPzrMfH6OfRRO3DfNR+nsiirfVdxjg7g1n17ZjbYR9hxE5ggdoHQ3NvMIAM2xzFa7jgcoGgCy6nMAwEo6ds0V+HIYAFZ0w/7ZO7H5/mBgrGIDPsoKYIfdThxkZy7RF78cPHm3z32gVHwM3J9P7p/wHtjRVhH2KsShhNB+StJCDAAon+fDLR/k6OujgKJqvgYA9da8/AUf8aTPIAmlWAJsU853KbzuBzwU1Kzywe7zon4aTqcDQHBJ979v/5fQExBrjtB+VOUWAODTo0ffQGv66U8BILdcxEtx/jI9M+nGAYoBUNS0l7Ypx3MjrX7RsS5s+4nG9RZE5gjtx4Q9luZ4I7Gh6CMAoBY19ZdZ6SvOewBw7HMCgG6WlNj3ad+3LL3xbxB6EtJpJbwzOPrcgJJdEubv0jNZNwAcpAeBJETx0r7ER2HlE2KkEZpArDlC+3G5TwMAljS9xR6m2aSw356E+M9Z6QuOKc8eUNQogOL8T7kzX3upna8qoRsgMkdoP07mz7wbwMNY+lGTzaWFGe6HbKPQUfQgAFC+c5Puitm2z+61Uqdn/B83mnJqnH2v/+t0qaawmPzze/3/FieR5noHInOEDuAYCsyHPIBy7vSMWO289roo/m1i4tHx+fOeJv3PAxQDeL4+51337KXojwCKmfnS2yzYCO05HeH/bbh2E+WejMyc8pBRvN7hPcuyOl0HQm9i5n+ZOfPtrFikPVPsSVe/lk8rz2jvBT4w0qL3WUqfccWGHySq3YbVvx879jggX2kqcwQC0H6ZM0ulUjEvKcbw58z6s/zaLL3UVEXRfu/1Nul6ELoYs/QsL6s6sK/f5XZRG9/9Uv5Xk/64ZifzuaI63K5GR98VVbyTFBfz9NdR7khV4d2kmJX6/pwIDO1YGwh7nPZ3WtXE18MnFdR9e837s4PMvEbcmXoOh/OQmxlhmBHPZhoHwOn6uH4nx8FmGgfgAE2/Tl+8RR89UlM4uD9/8ScHfegtqkx412i3zDUPTv2+w1jJY8A7eLjVcQTCm1LMLoiY9LhrS9UnKYwybjIp20u03ZpbW2ZYQ1F5IOKzYXfzYwiEN6ckSzcbsz2o8v2ie2yQzD/0FO12D1Yfi8VRn+dASbkpiM9Mx2HvxAmX08xJ1+G/7WpzZQhdjLkozoMV6j6opbyyAGaaPGm9xU7KnPlckZbq/T339R91H6Yc5fMUswsi9SlPO5BW8k4fz33oBMom3my9iUcgbJ/8rwJGedfz2fnnfv9Q2aQzF8V5+FN/IkPAvcVOdlodB93MR2bad+wYc+zYd2Jp3z6YRfH74X3/0n/s27SKcj9iYsAZ/+u849tIWeNImEPCLmC+LuJFfH6R4YbWRS3/m4hRt4t8T3uMne60HujvAwB4fBPskAvwMGMeyvvHv/xwfILOSW5pHhT15VFhKqOuz44V81mF+vQoGS4h7CCe84b+jcNZE5dYle8qzDhDnrReY6enIJ7KYhGAZ2JkbfiDPuoBgOyV9C+LaYzOCFe44t/i64FbbRNviEw/EHaU96s0biUvPirieTa9wHJjROV6jh2WueJiWgRw+PhwY7jEA//v/95V3GPDzGccPxCL3VHxTEw/Me3hEuYDJXY9v7OVIRBsivf5Y2dj8/8Q+m6EfWRspPfYWZkryQ+SAKhxT9VUVl5+AACe//6+skCd9Ljh8HDf+eTvjg9fKrqOOEolDVBj13PDJ8j8F2FXoMYF445/YjoVHSemXC+yo4u9TPHcvmOzoPzpfKQcj9/M/51jvoxjhE/erkngZJZK5ZDV1f9txUpefKxttAP6jnrcm3vREwiE3mNHpyAeZQUA6NPux2Z/A1ZV8VYibdJcKBH4hq1LxOlwOpv8txXPxIt/S264B839GPWRRRQEAqGBnbTmlB8GB79VMBaR4xOVvoFjL0Tdf/36Nc/zna4FgUDYiIMHD/7lL3/ZjV/eQWtOle8qADxjjHtz86yt/POf/5QkqdO1IBAIG3HkyJHNd9oWOydzz7PpBQD0cc+em0n43e9+d+/evU7XgkAgdIYdm2ktKVISW8m8ua241Q8vvrcJx2JPd6IZBAKh69gpa86UH8wDoMaHBzcZi6M9pyP8vmZxq9E6bvXHAV33b/y7jv0bbycQCD3KDk1BmOIMfexiEczVQuYUcU0iEHqUluHBzapFKS9LpRVVVrS+Ua97P8yS6djlicod6LSWnqRjf525WAQA8dZ8fEEttdp1RRX/MTvz1V9iT2oLr8/OfHVy9uHb14VAIHSWJuHBlR+G+35/PPZsrcAU5waP/aQ59wOPZof79h3/x+7mWdsBmXMe8XJXJMsmHfaN0i3nWUncagKhq2kSHtwUE3MKPcUdP1Qp2W/oT+AeG6RhijfCymGOG93dLmCboweTuNUEQlfTEB7czIox+Pjv2fX3u6iIC/D+yQ1TEv8BXyjI7vJC4/ZGD7bjVt9+Z+NWv8xeHB2eeQjqQ+Zof+NmQ13IqgDAS1bQ0+7KtQPz4UXGM5MF5Ro52t/47Kyq4kMVAEKSdaErL8BGqL9MDPviRdCeUXpf42YtJ/5WBMDGtcTnnf6kv1SVBVF8ag8vOfo/HPZ4aDOb0D7imIOl/H25emXlvj8Muh1qbcTcvqOfuqn3UXoiru/ad5QZoBrCgx/7w2J8+FLGd2j9YPOxFIc/9SHMrBj38JnPd//Vt9qIcS8AsMJybame8gOBe0Y7a7J9lqJeAONCoenWV1rqvAfgpaZbu4LCVS8A9ufmF8DSUsEhINTFF2ADjMw0BbiDD5o/zPrjqI8CG9faXK3aSuSEbxiKcnmno5m8puu6lk+F7YgGFJcoV01PTVMAQPmEpUpb9ExwAACoSaFQ1T5DiTAAPWUXasI4qJBkWXrqvD/6WLcsLXMtU/esSCEK44JmWZoYzahtaLPVVpmTL1EYjcrZcCS7fp2MewHAn9LbWZG3ovAzu9F7bmSCVDfLnGUVhHEArKA232yIQapHZc6yVqXgADAQlFabby9c83ZQ5gwl7KWAw1w0XyfEhegYMBTJre15LwAAFC9XHZ2ZBgDqklxzaJanKF/Ctl1sk+V2TpjmMy9a1UIOD4C52uL12R3aKnNSCBhguCty9TWW59wYjba10W9LQZikNnjPpVB3y5xlqYKPam3SWhJ/qcsvwAYYWd4DuC9IzS26ZYHvkMzZFQPF8NkmVdNv+6mzVcaGEnYDAJeoUiv5sgsAzqaqjbnMNOWZqwjfgyBAURSo85mWvbNlgQXFZ9+2OW9EW2XOemXo9V+5QnS03dK+A9jv+Vhzddaz0rvWnjemEPdRgLf5jdOlbNdfgA0wpJAHoFqMwxSkbCd6LquZAAWAYq7IzXdYEgLVHZRlgQVqh5jk8BAAYDKxrtNK2HPYn6pIoTznxmgkc4Or08dq9Nt+INBaBXeF9spcNS9yGUWzlgW2cbTuXUC7scF73gtoiUkK8EaXOl2RPYgh80MAFci06Lq2HUMKuQHgcHDLVZJ4u9e6WP5bv+13HaZre7J66jRdpZuF6Cjcc7JlSPwAvNcKlppJ1feOjcw0cDpVyEaFx2/drC3TMZnTbvjwCR8Jebkb76hS6KnTvf2ev0j5W5u0vY4S9gDUdJutlha8SHAAAPpSC1OuCYXoKABwSdv2lMMjTGQuCAAIZl5ZlmWbclW6WdUb1W74KMrlOdU4rKElJoExlr+Wa+eV6Zw1Z1mGrut74inYLnZHoIffc+NeoLdN2o0oXPW27rq2Ff22vR6cCopbr4yWmARQnhc27gXo0ym93JP1JTTLNuXYay1vvdHq5Tb0hpGrXaeTMtcFGA+C7p5+zw3pgrunTdqNKAjje6LrKl+y3fTebHRICq3NqxaiY56wYllGJgAAnsjjsinXYp5lz9HmVRDdhuOTGf4s0teSyutOV6UzODx/5f1Ix24pna7JHoT2hSJMUYgvFDtbD/O1XQGH401WA1CHWABFTSsuzF88NMMNAI59fQCglsxS8kq4/3vO0/nQ4FuCyNzb8Swp3PUJvwTc7V1OsndQ7wjpSUGYJml2GzGzNwUjlIyc6PSah23R5+wHgOdi+AfJ/6XXCQA0PQ6gKF+b4fNnZt6dNGlE5t6Cl9mLn0eOXo9VL2TpKcyHFyeuHBV+9L0zz3sbUX/hJpbOCBc6b/G4BuyxOVVbabGHaTaWOf+1HwBuzQoHzk0MlMuoQwCQ/Cnh+pZzv3nDzFKTE7UBInPbRo1/xaa8s4Ghjj/GHeJZnDuROv5DwEMCmjZgPrw48S340J74ADhHJ/gBANnYQrOxhRVx5ovZ7MuG8oM0CwCeM197K+aoY9/vAQBD586NNzFR1esn3+s/UxcZXPlb/3sfXMy+blPMpeZ0enDwXUWe81CTrZYBWIWs9O6sXtsecniI8sVbXoDOOMHuEV6k/JSn6WIDy7IsXZLaPmNTXgIBT/BezX3RRN73Wbj5w2pkAgBV7QxsWVqcBWh/usXNVTORa/U/ZihC+GfZsIzMeQqHuUQnnGSJzG0HI8t7hvhW6xYtqyBcEDq6Pnu3MaSQxxNqPc+mCsHOLlDvJAVhkm79AbCsB8E2L3WyMfJCYIQCQA9xgcvh8DTHjDDc5Yz2qtURcniArgtDYNwLUCORrXvfVR2ZCVIbfBd3FyJzb44q+Db4VluWtRT1XujmRZ2FuI/aSOWtwjVv8EEbK7SHMKTQRma+ZRmZ8y1XQ7cBQy/IYiYjZqS8ZrQUuPK+2mKu3mx7kZPUZk/+K71wLxq+4Oeu5dYLVzX5diQ8zXHxgiEG6RMd8zAlMveGrEr8Rp01qxzEpntDdBhZ3kP5NnpR9VSAQkcMlo6z6QfAyke87+bqxs1ZijKNa/KVsAsUv9i+mEtN6VU/iG1iiiF2pjQceJ6c/Y/me2iL87M3iwi1t15t46U4c2Km9GlAuzk723wPTbo6myyCb2+99gRPY2d88aOneOmn2ebJz1fz6b/HRLATba5YWygupkVMBAdqC5fkPCY8H4JycJ10q+mYwL6D2GE5tkR3WnN2BKot0XPW3KrED23x2nSlNaenTgOn6+JGlhfqd3w2ilhzW+Z1sURxgshtZd99dDe6yz4vUVNCZmoru+6jN8lK3m2UivBcymS2tG//4C6nPugApiz+BDY+WJvuKq8sgPnK1TIHVrvYoTytBAKhl/n1Yv+fRH6RLy3Cf7riEf00duyDea8iBwY2PnjXIe7BBMLWeG2WGn1oNyhvI2apQ8sL1niNIvT4VZmZXF/1UcorIhj3kY2Oaw9E5t6O12apVLKfsWYLWUrqb8U3e/7MYv5py3Teexz7WpRMO8v6W/1U8VF+e1eh9EQp7k4YhYacypuUt4+V5Jm+Pvo7sZNKNxQ0dClz1e9eXxJjyg/mMe0d3gOrhIjMbZ/S/ZljrpPzWU17Ipxh+ukvkjXLWF7mY3+dVynqze6yg3Lk+XM3O7Eg5m0w1fgXf2S+T+SLmvTDyT/+YV/4123/Vkn893MpR+uk5hviPIjE182WLr0pZin/MJ1+WAkuUpdT+bWpPkrH76tNci3vPuZKPns3na1UTb0Ti1HMObbDeuJwVs7/Us0+VEuvlex1N9/pWpXp9BzIu4vEU+tZLIx7gdqMRwVhkt1uFDZDvsRu5H6899DibFWA/0J01JfY5iIIQwoxbxuKcjnBTW3goLtFNGGcWnNyNsQgVestKF0A+3OhsbwdLAssFZTKzr2F6Bg2WpHSfhZ5Cv7Ij5z30l6pFZlp3Zzi/Vj4elx5Xv7TG8oEhoDnqlyEXip3rRz04LnX68u0i7+cm3h/Qj+8vRM63Kcm5j86l34c8R54u6rvOKV88u/zwkKlR3mIi1710YD6NAlwpZeAA0D/0THGuS0vKfPhrD/pjV14OwvgIOt3DU784JK+eYv5bjMn3zw+/GP5D2mhLqeyIt1hmF/6pZ/rcy1v61wmHG/QZDMvJ8eGY/a7+1RMLgX5G52Pg7LOx0FttVSC0793Yjp0WmfbjC5d5vyXw/yFoP9yszj99bnHDCnk8ZxP5JqkKbJzvnj4B41eQXJ4AL4bFXvmRS6TjIanucBt3cgn+CmGDWV0yyqkeW6U5cWmTkUF4QQ8V3LNNjVtgl5IR8NXeP/ngZRqGctyKh4JT3PhrKE/iPjH65NGrjdvwzD19VtVwXfYF8lqjYcYi7zHTlTcav2QXkhdC0dCft90qmDpOTERvRz0Tye01VwixDHjgZRqWZaemGpIA2oZuXjAfyEcDvGBs9GmV8RobMSDIKi3S/6b5alxIfc4GvjMH37wX/U5lZeizEBYbpZruTV66jSoES54OZq4wgFgLiRS8TA3QtmeZcZywk8BYCOKbr0yCjf8FIDxiPzCsizLWE4FBuA5n9JeWVKIYn/O5a4FvGfD0v9OCMoesZn2Lr0lc/ptPxCULMtSwp7q16mibvJlN+CNquViQwxS45Fcq7U7uu0R2rC+VQm76/xjHwQBJvxzhL+Wk654MBBO3OAji1Lkk/W3uu5dlUJomr62SRNWc9HyWvFCdLQsr3YvMnEvEk5rmRAwEK4Wj7J+vUhwWE+pabzISemUtNbZrN1qWYXomDvQKjSFZRV+9lG20jVsMvJR32GfoNrrgez+rMQDzI+pxOVo7rHAAv7bup3MuD5bsxJ22ylxXyS46mgZax8kJewGvHVJCZYFFmjR+dVzS5vrnzznZq5kMnPhVLPet37bX5uudAsYmUAls6085wbcYcWyLMt6EKw02U6/UEnyaydeWPMzNzIBKpgxLMuSwwNM5F4mPJdqveqeUENvyZwhBilQ/tu6ZWi55fWnVLvhoyYTmpEJUqCn1t8l+RLl+iaaETNV/2oXM9sJW+tGZx4EAaZ6YE6ecwMe9opk2I/ygDecNcopyu1XUUtwVI1zvBSqeuI3aoKWmKQwldAtqxD30SP2gkojMw0MePzxQvnlqUkxJfMUzS9ahWteUEx4sbKlZsSnYauW8IENp6svRUZern7T7fykDeNEywkfZSeIKgiTNGOP1yxFGcDzWVhatYdymOiSZanNtGkp6gU8c7Jl6bn8+rUv37JW4X2WBbZRMS3LelVInPVsYeyvIJwAAH+6uRGcmV5LedUcTYwGphhmtPwvnLUsvVDpExSiowBVubkvcmt9BSkEoGKELkW9WL9xhavecnNUO++MP9XpFBPvEL0lc2VRaDFm3GSYOQTmQqJW5mTNsKxXxnp0BztVXVWaceNeAKiOQqEJ48AALxmVGF7TGaO8W8uOVSuZq29ClqcA9rIQmfYHr0mVz7vEr6UcMzIB21aqp37o2rgXsOWy6VZrWWDBRWouRSaT1y3LMlbX9tISDUkdpRAFsOGfI4HTwWi2rDtanF3LelW4ypSNzaUoAzSENjHkS54mJnN5Y4vwPs1kznicCI7TAOO/Er2XSkTOc8zaGLmaCCc1y7KsxQg7Hkj9n5Qf/kQyaCtpQyQPiadY4XFBa37vNhjosCzLsj9vaJbbsPAzW1kKZmSmaYoCxgXNsqzVTGCIt+uq3/bjbCJxnvLd0CyDdFe3RC/JnP02vkj5qRpV0tVM5BQTvKdnztcnZDPEIHWiSS9Mi/vLPQ7LKn/5q/tTizxV3WnVU/61fJdZnqqogHyJKj/EeiFzhWMu1Dz3UkNPs2kT5EtUkw+7EnavZavL8lT1IkpDl28E2c+juaWotzY5cc2Iz4P6rbbwNQuvJPHVixYfBKtzGFuWzFNo6N/pqdNriR81YRyU3TXTEr46bTLs91gOD9UkiqzcMqNleJ/lSke4FnnOjRNVPcfysICWmKwElXmVi4wyP/0vW/EL0TEXezpaHyhyWWDB+uMtglFuPNBR/rw1/fCUMw3yWctairLno9Hxcu7nwlVvxXisGJJLUe8R1t8Qw5LQlB7ym8tePpNcAQ54J06h+Ly05n3qPNRXuoP+P5j4IBqeqglq7Rjh5p0zE9+l6zxOtWcJcbHi2maquSzYseH1qcUPPROA9qJ8BnNRnAfn/dQJQMkmiqMscxiAKt8vuj20+sN81tGP5ZjzA7pqsqyka6DG3K4tNaGSsellPn03bwLqYlqhzhwfcVTO6HU9j8V/MwHA4eyHmjzQT5t9EzdnmPW5MEVKHmUoLV1iYnMBj7NuKwB64ns+OzUR+63Wb7eo5W6JcsVPTV1SMHCGqVvQWplGNJ+k00/M8vrHyeM0gJIs3cTEx87kT+kS5WZGoRa1tePUm2fmHwFws1+xUIoNt8xRAh2d45oEIl/RVHjd9YspVfmu4v7UZe/ff9CFhWIRKN2JzC8V8QoA8D4wwP2P/xm2rrFO0NxtOTbHeep+5qBP0IXI5/XFNvmHsb6DDm1RFO+v/atxdVYeCgA77G5ytJ1+QV8tidfS3i+4ox8BRZgvxflfGP8Je38Hc9mKnnDiMJdajIWnmteBUE+ndbZtaMI4POdTBS3DjzA1PaDyrFkr9FyS50YZ7zjHneK4U1x0UUtMuZghr/9aRlZS4XEX802qzqCQL7upyuCxFKpYbVYhOgr3nH0qiQfcYwEhb1iWxFNMJF91vJEJUu4qg7F1E9QEdxj0eCAcCgav2N/2KvvItgqHvIH1JOctxpW2OOKjZSKnWWaU9Z3iuFMcdyGlLfKuIcYzzicUWboWYD5kI7UTf4UbHA2anQ7z54ORB2smbcXAXBZYUMzn4cwLy7IsPclVrlW58tRkVNZywqSLu1F1jTe5ZVbhmreqA16hKi28XQ2AFZRUICRJc277vIV48C1zzrYc6CgjhweaTy5Vagj2fJCdzhjlIV3Wf5ppavoRtk7vyJxlrFqWZegNLhTaDR/OZ97wpwzLsqxVXddbpBBflfiRzfIQr1ZqooTdA2Gpql76bT/TzOGzRROaNGqdV3VTuDJPsWtTydVn3OaIT3mY0tB1vWU1Nqxgbf1q3Krt62zoet3o2Ga3TA6PNBl+Ne4FqnyY7aFAxnvCn3phaXEWo9GcKgS3kFl8Ey+cFgMdVSdd+9Q1HlzO92x/4bQ4C9T01jerGBmqa04PyVwLNp812yaq4D+/Jc8tPcnhM384XXmYVYE7lditcNLN7aC9NOKzKvFnNxrb2uyWGdIlX9P5CilEYVKQkpGUPTmwLLCA92rBKiugh/mmVp5Wa+S1qRdOMwqJKdp2cGvEVq7WEeRlngK1NtaZ5dcmaqobWCOzGzvWECzLIjJnWRJPcdtdmbQZLzLhq839cusw1t7q1UzkR3n3VEaLs+56/9taVveASbCaE+Y2uCcb3bLCjXBCbb4lOgYMsfztihAsC+xAefrSyvKoD26uJaaoqvmQFl44zWkc6LAsy9CyUf8QAHA/yoXmOq4J4571wQol7G405RbDNLU+Bb+JYw3BsizL6uV4c8X0t5zS75bM44k9kDN41/l1/ljcZFZkOiS8s/mz3+6WmaUSnE5H1d8vHU57muW1WXrtcG7+i2rM+8eYRxJ37YExS2ZVPUzTdGxpGZgpztAT6pwkfL4XEsPuOXpZ5oCXpdJrOJxbeLy7AbNUMvG+07l3VhpugzbdspK6IFz8D82X5Jn9gFlS7oT5WzQfwrkxNaDwTIeuobmiJOf41Ae8MOUCUHomCpcuauOpmff5o/9JZ5LNJp0JvR6Iab/T2SsaB8DhdL7jGoe23TJnP9SY8yhtX66WXjjtxnHAafwq0R+UHY02d6whAOh1mSMQWqA8FJgRd0U4zNxinBsZdnzI+gY6+ll8nk0vnBxeizn+VBYp7/ARUCMcc6iD1drrEJkjEBpRpGS/191vlt3C89nrrKeZQ2+bKSlScooZRDlOcFERxf2C2UQAAADrSURBVDF3N2ZX2mGIzBEIDayo+Uf9albSyjHdZJEaHjzU2ToBgPok7XkppZ7af5m5xTj3p8HOVumdoLenIAiEVrw0sb/cPy3+ctL7bEY+vxfMpuq51+zF/phLibKdzPP8bkCiBxMIzbA1ruyF4zgX2gsaB8DWuIpjzVdcgGjcFiDWHIGwAXvVC6e3fKHeFiJzBAKhyyFTEAQCocshMkcgELocInMEAqHLITJHIBC6HCJzBAKhyyEyRyAQuhwicwQCocshMkcgELocInMEAqHLITJHIBC6HCJzBAKhyyEyRyAQuhwicwQCocv5/6JBObec4VbFAAAAAElFTkSuQmCC;" vertex="1" parent="1">
          <mxGeometry x="423.87" y="613.63" width="220" height="64.21" as="geometry" />
        </mxCell>
        <mxCell id="7VG0Se6K9YWMU1WsLbms-235" value="" style="edgeStyle=orthogonalEdgeStyle;rounded=0;orthogonalLoop=1;jettySize=auto;html=1;" edge="1" parent="1" source="7VG0Se6K9YWMU1WsLbms-206" target="7VG0Se6K9YWMU1WsLbms-234">
          <mxGeometry relative="1" as="geometry" />
        </mxCell>
        <mxCell id="7VG0Se6K9YWMU1WsLbms-211" style="edgeStyle=orthogonalEdgeStyle;rounded=0;orthogonalLoop=1;jettySize=auto;html=1;exitX=1;exitY=0.5;exitDx=0;exitDy=0;" edge="1" parent="1" source="7VG0Se6K9YWMU1WsLbms-41" target="7VG0Se6K9YWMU1WsLbms-168">
          <mxGeometry relative="1" as="geometry">
            <Array as="points">
              <mxPoint x="400" y="620" />
            </Array>
          </mxGeometry>
        </mxCell>
        <mxCell id="7VG0Se6K9YWMU1WsLbms-224" value="" style="shape=flexArrow;endArrow=classic;html=1;rounded=0;endWidth=11.03448275862069;endSize=5.186206896551724;fillColor=#A9C4EB;fontFamily=Times New Roman;fontSize=13;" edge="1" parent="1">
          <mxGeometry width="50" height="50" relative="1" as="geometry">
            <mxPoint x="190" y="656.5" as="sourcePoint" />
            <mxPoint x="150" y="656.5" as="targetPoint" />
          </mxGeometry>
        </mxCell>
        <mxCell id="7VG0Se6K9YWMU1WsLbms-225" value="Scheduling Solution" style="rounded=1;html=1;fillColor=#BECEFF;fontFamily=Times New Roman;fontSize=13;strokeWidth=0;whiteSpace=wrap;labelBackgroundColor=none;horizontal=0;verticalAlign=top;" vertex="1" parent="1">
          <mxGeometry x="110" y="555" width="30" height="240" as="geometry" />
        </mxCell>
        <mxCell id="7VG0Se6K9YWMU1WsLbms-368" value="" style="edgeStyle=orthogonalEdgeStyle;rounded=0;orthogonalLoop=1;jettySize=auto;html=1;" edge="1" parent="1" source="7VG0Se6K9YWMU1WsLbms-234" target="7VG0Se6K9YWMU1WsLbms-367">
          <mxGeometry relative="1" as="geometry" />
        </mxCell>
        <mxCell id="7VG0Se6K9YWMU1WsLbms-234" value="Calculate the object and conflict value" style="whiteSpace=wrap;html=1;fontSize=13;fontFamily=Times New Roman;verticalAlign=top;rounded=0;" vertex="1" parent="1">
          <mxGeometry x="680" y="732" width="90" height="56" as="geometry" />
        </mxCell>
        <mxCell id="7VG0Se6K9YWMU1WsLbms-359" value="" style="group" vertex="1" connectable="0" parent="1">
          <mxGeometry x="210.13" y="711" width="440" height="99" as="geometry" />
        </mxCell>
        <mxCell id="7VG0Se6K9YWMU1WsLbms-206" value="Conflict Resolution" style="rounded=0;whiteSpace=wrap;html=1;fontFamily=Times New Roman;fontSize=13;verticalAlign=top;" vertex="1" parent="7VG0Se6K9YWMU1WsLbms-359">
          <mxGeometry width="440" height="99.00000000000001" as="geometry" />
        </mxCell>
        <mxCell id="7VG0Se6K9YWMU1WsLbms-358" value="" style="shape=image;verticalLabelPosition=bottom;labelBackgroundColor=default;verticalAlign=top;aspect=fixed;imageAspect=0;image=data:image/png,iVBORw0KGgoAAAANSUhEUgAAAzgAAAB3CAYAAADPauWmAAAAAXNSR0IArs4c6QAAIABJREFUeF7tnQeQVUX2xg9B0WXJDqAisEhmSl2tP4oYVhEQQVkJhlUURUCCAoNxTMSRJQ4usYYkIFFAWMKKIKhkCRJUFBhQxISAEiTDv7527+ybx5uZe/vm976umiLM7fQ7/e7r73T36Xznz58/Lx6lbdu2SWpqqke15VxNWlqaJCcn+94Osw0At3hISUlJUqZMmXjoiuU+OGnDzMxMy/UbGSpUqCAFChTQzh+dMdbnyMm+OtZQlwoK03vEJQQs1iKBIH0+OH4tGo+PkwAJhIZAPj8ETkpaS98ADU6dKWETOB9++KGkp6f7xsypijMyMhJW4MyYMUMmT57sFMpAlJPT5ygojgy3IYXtPeI2D5ZvjkBQPh9hG79BEobmLB37KTr67NBzJm+NGjUcdfTFalW8jFczxIPqKPFN4FRNLmeGm6PPfL3tOwmzwPFTGNoxxMGfD8uE9PeFAmeyOGHDvZn7ZeaY5Y6UpWvX3D5HxgTOib7qts/tfGF8j7jNhOWbIxCEz0cYxy8dfebGV5CfCoqjb86cOZ4InCDsWHJ7PATZUUKB47b1HSjfeLH3yXhSLitTzIESvS1izYdfUOD8dwVn+JwuUqBAflsGMIQ6BEQQHQWREzg/2mcLronMdh0lWMlr0qSJFC9e3ERtfCTeCPj9+bA7fv2yh/E9GFbHCR19IobA8cuGu774XuZOXileChy/+urF5zTojhIKHC9Ggc06KHBsAgxAduPFToETAGPYbILdCSIETqdOnaRLly6SkpJCoWPTHmHLToGjZzF+D+pxC1IuJ78Hdfq1aMY6XwQOHX0XWssLRx8Fjs6nxOM8fLF7DNyF6px8sXMFxwUDWSjSrsA5d+6cVK9eXXbs2CFFihSRrl27UuhY4B/2Rylw9CzI70E9bkHK5eT3oE6/KHB0qMXOY/d70AtHHwWOc/Z2rSS+2F1D61nBTr7YKXA8M1vMiuy+2FHoxIkT5fHHH88qn0LHX5t6WTsFjh5tfg/qcQtSLie/B3X6RYGjQ80dgeOFo48Cxzl7u1YSX+yuofWsYCdf7BQ4npnNNYFz5swZqVq1quzevTtbHYbQ6d69uxQrFr7zdv5aJhy1U+Do2Ynfg3rcgpTLye9BnX5R4OhQc0fgeOHoy1PgHDx4UPUu8rqcnP6e13Nff/21DBw4UEV/8mNPojExxP73ypUrZ1nNTN90+2xUEn3dkJU6P/vsM5k9e7aEPchAmzZtsiZtZvqf13iKxdYO57zKs9PmLVu2yKZNmySezuDcfPPNctlll13wfvjll19k9erVvn3OnXuF5/5ir1WrVjYRYmZ8RD6zceNGddg1VoK4gcjBOZ2iRYu63SWW7yEBChw92BQ4etyClIsCJ0jWsNcWJ3YyuO3oy1Pg9OzZU3r06GGPxH9zlypVSjAp8lvgrFq1Sg4cOOBIn7wo5KqrrpLrrrsu9AJn6dKl8vvvv3uBLHB1VKlSRZ27iCeBk9PnyO/PudvGN17sXrxHrrzySlm5cqXgglYm/wjQ0fcHezr69MegEU2Ujj5nHH06ljBWcJo1ayb58/8RzdSqY8psHjr6zLF109GXp8D55z//Kf3791cDIV++fFljyszfo/PAE4lJnt8CZ8+ePdkm2pF90emn3fx51Vm4cGEpWbJk6AXOsWPHBPsujWRmDNll63d+w7Znz54V/MSTwClRooRcfPHFF7wbTp06JZgQ+vU51/nis5LHEDgQHX/+85+1xzNW9ebNmxez6gIFCggmQnAwlS1b1krz+KwLBOjocwGqxSLp6LMILICPO+no0+meIXAWLFiQbS6iU1Zeeejoy4uQ+d/rOvryFDjmm5D3k1yaz5tRrCe4NK/HLUi5nFya5xkcfy3rxNJ85AHLyN4ULFhQ2rdvLy+99JKUK+f9Zcj+kg1u7XT02XNumnFm0dFnzomcF6e8HIh+5HfD0afztjAEDpxzbnOio8/ceHbT0UeBo/Mp8TgPBY7HwF2ojgLHBag+FemEwEGIzFatWmX1ACthHTp0kBdffFEuv/xyn3rGar0gQEefHmV+D+pxC1IuJ78HdfrFIAM61GLnceJ70G1HHwWOc/Z2rSS+2F1D61nBTr7YuYLjmdliVmT3xY6XOgIUbN++XS655JIsYVOmTBl/O8baPSFAgaOHmd+DetyClMvJ70GdflHg6FBzT+C47eijwHHO3q6VxBe7a2g9K9jJFzsFjmdmc0XgTJ06Vdq1aycdO3ZUKzY4X8eUOAQocPRsze9BPW5ByuXk96BOvyhwdKi5I3C8cPT5JnCcw2ytpMGpMyUtLU2Sk5OtZfTxab7YfYTvUNVOvtgpcBwyimYxdldwJk2aJPfcc4/gECpT4hGgwNGzOb8H9bgFKZeT34M6/aLA0aHmjsDxwtHni8BxDrFeSWEVOIhKFcZ08OfDMiH9fcnIyJBE3YZjvNidsOHezP0yc8xyFaXMr5SboyByAudX+9yuN4yOEreZsHxzBILw+Qjj+KXAMTe+gvwUBU6QrWOtbWFw9HkucKwhdO/pMK7guEfDm5IpcCZ7A9qjWnJyFBgTOI+a4Vs1YXOU+AaKFWcjEJTPR9jGryFw/HTs2BnKdPSJOOno07HFri++l7mTV6oLlhGK380UBEeGm/1D2UF3lHgqcNyGHa/l44MSDykpKSlhV3CctGFmZqb2cMDdLU6+2GM5Cpzsq3ZHPcoYJkeJR0hYTR4EgvT5CNP4NQRO2AcYHX3+O/q8FDhhH695tT/IjhIKnLysx9+TAAmQAAmQAAn4SiBIwtAOCDr67NBzJm+NGjUcdfTFalW8jFczxIPqKKHAMWM9PkMCJEACJEACJEACJEACJBAKAhQ4oTATG0kCJEACJEACJEACJEACJGCGAAWOGUp8hgRIgARIgARIgARIgARIIBQEPBU4fu9JjDycXalSJUcM5NXeQ7/Z2YVlsC9evHggLjb0ym4Gt6DYz4u9x3bHCvOTAAmQAAmQAAmQgB0Cnguc1NRUO+0NVF4vo0fESwSZIBjQS7sZ/TXCY/rdfy+ix/jdR9ZPAkEm4Lezg44+/0YHHX3BiAhLR59/nwEva/ZF4PgVx964ILHlE2m2Gc8cnypeTpTDfgfAuuXbZcXireIEezvG89pu0QLHibH/+ead8unKrdK64/2mUdiN/3/8+HFZvny5TJw4UXr06CHVqlUzXTcfJAES+B+BoNyD45RN/PgedKrtiVyOl3ajoy+RR5p/ffdN4FRNLud5r5fO26RugMcku1zFZO36v9uzTbyeKIf9FufJw5YogfNk1wwpVqKMNns7Gd222+HDh5UIGD9+vLzwwgtSp06drOY6eYPzhjVfSM9uI2Te6mGmcSyasc7WBWdY+XnuueekSJEiMn369CyBc+7cOfnqq69k1qxZcuDAASX6L730UtPt4oMkkGgE/L4AkI4+/0YcHX0zZPLkyeKEo0/HinT06VALbx4KHA3buT1RjtUkChwNQ0VlccpuJ0+elGnTpskDDzyQNZnHCscbb7whn3zyiaxZs0ZWrFghdevWdUXgbFz7pbzRZZj8e81w01DsChxUtHLlSunUqVM2gYO+vvzyy7J79265++67ZciQIRQ4pq3CBxORQKTAoaPP2gjg96A1XrGedup7MKeWeOXo0yFh93uQjj4d6v7locDRYO/2C4ICR8MoJrI4ZTesWIwdO1Z69ux5wWQev3vwwQdl+PDhrgmcTeu2y7JFayXljcdN9PqPR+y+2HMSOEYDevfuLfv27aPAMW0RPpioBChw9C1PgaPPzsjp1Peg344+HRJufQ/S0adjDffzUOBoMHbqBWGlar7YrdCK/awTdjt27Jjafnb27NmYk3kvBI4OCbde7BQ4OtZgnkQmQIGjb31+D+qzc1rg+O3o0yHB70EdauHNQ4GjYTsnJspWq+WL3SqxC5+3Yjd4ZCBkcMZk8ODBsnHjRmnevLm8/vrrMmrUqKzC27dvn03ohEng7N27V7DygvMzOFvTrVs3adeuXdaq1MGDB2XQoEGqv/Xq1ZOWLVtK3759s21Ro8CxPy5ZQmIRoMDRtze/B/XZOSlw6OjLvlWb34P2x6UbJVDgaFC1MlHWKD5mFr7Y7ZM0a7dDhw7JK6+8og7Vly9fXqZMmSKrV69WQgcH6HPbjuWFwNm8/itZMn+NdO+hv0Vtz549Mnv2bHnqqaeUuMG/n3nmGbn99tslJSVFsI+6Q4cOUr9+fXn00UcFYqd///6ybNkyChz7Q5ElJDABChx94/N7UJ+djsCho0/Udx8dffbHnR8lUOBoUDc7UdYoOscsfLHbp2nWbjt37lSTfYRDrl27thw9elRFRmvbtm0gBM6WDV/Li+0Hy6L1/1tJyotO9NI8ggFAyESnxo0by6RJk2ThwoWyZMkSGTZsmBQuXFg99sEHH8jzzz9PgZMXbP6eBHIhQIGjPzz4PajPzqrACbqjT4dE9PcgHX06FMOThwJHw1ZmJ8oaRVPgOAktqiyzdkNENGxPe/vtt9XWLGxDu+OOO6RQoUKqRL9XcLZu3CHPtx0o/9kw2jStyBf76dOnpXv37nLzzTfLI488ckEZJ06cUL8vW7asvPbaa1m/jxVFzfglgwyYNgUfTHACFDj6A4ACR5+dVYETdEefDgk6+nSohTcPBY6G7cxOlDWKpsBxEpqmwEE2RIiZP3++DB06VIV+7tixo9qihdUMvwXOtk07ZPG8VZaiqA3rM1NmTVoqX3zxhZw6dUqdtylWrJg6U1OwYMFspCDw8Psrr7ySAsfF8ciiE5MABY6+3Slw9NlZFThBd/TpkKCjT4daePNQ4GjYjgLHOrQwXfSJCysXLVqkVjfOnz+vtmp17dpVMjIyVOhnvwWOdfoiw/u+KyMHTZX9+/dLgQIFVGAE3NuDoAkILFC0aFE5c+aMTJgwQZo1ayYDBw6U7du3q3DYJUqUUFViBQfncnBpafXq1bM1gys4OlZhHh0CEOk1a9bUyRqIPBQ4+magwNFnZ1XgBN3Rp0MiUuDQ0adDMFx5KHA07EWBYx1a2AROmzZtBD+NGjWSb7/9Vrp06SL9+vWTWrVqKXHw8ccfy8iRI9WkHxdcGudUMHn5xz/+IW+++abcc889ki9fPgULogA3OA+f00UKFMhvHaDNHMP7zpKRg6ZkCZwdO3ZIq1atZO3atdlKTk9Pl2effVY2bNggLVq0kNatW6uzOugHVrD69OkjNWrUkHHjxslNN92k8iLSHMTSrl271P0/hiCy2WRmJ4ELCDz00EMyd+5cddFu06ZNQ0mIAkffbBQ4+uysCpx4dPTF2qJGR5/9MRXUEihwNCxDgWMdWtgEzqpVqwShMNPS0qR48eIq4ADO4WCij0hpED+YyCOyWpUqVRQQrGJgRcRIkSGknRQ4X2zeJYvmrLAURW1E2ix5d+IS+fzzz9UKDhJEDgQLbme+4oor1DY8I5ACVq4QOQ79Wbdunfr/Bg0ayOjRo9X2tTp16qitbUbUuM2bN2f1e8WKFdkuObU+WpiDBGITwOW6GLeLFy+WF198UZ0VC1uiwNG3GAWOPjsdgRNvjr5ogUNHn/3xFOQSKHA0rEOBYx1amASO9d7lncNRgbNll3Rp1U8+2JyRd8X/fcKJC85MV8YHScAlAhA4SNg++vjjj8s111yjVlLDlChw9K1FgaPPTkfgBNnRp0Mi1vcgHX06JMORxzeB4weevZn7ZeaY5dLyiTTb1c8cn6q8+8nJybbLMlOA8WJPSWtp5vHAPbNu+XZZsXirI+ztdM5ruxltNQSOE/bL/Hqv9H15lIyd1dc0il1ffC9zJ69UqzXGCo7pzHyQBAJCwBA42FaCBJGzb98+FfEQQTHCkChw9K1EgaPPzqrAsV/ThSU46ejTaR8dfTrUwpvHF4ETXlzZW+6HwIkXdn72w0u7RQscJ/p95MgR+eGHH6Rq1aqmi/v111/lp59+UlHUKHBMY+ODASMQLXDQPGwNRTAMiBxcVBv0FClw/GgrHX1+UP+jTjr6/jiL6oSjT8eKdPTpUAtvHs8Fjp+oMjMzs6qvVKmSI03xagUHX4phTgZ7nGcpWbKk713xym5GR/22H4QNJodbtmyhwPF99LEBugRiCRyUhaADjz32mNquhnMDQU6GwAlyG620zUuHkbGCY6V9fDY2AS/tZrTAWMHx2ybcyeC3Bbyp31OB402XWAsJkEA0gY0bN6pAAYiOxkQCYSWQk8BBf9avX6+2rN17770q4mFQk9/ODjr6/BsZdPQFw1GLSKDcyeDf58CrmilwvCLNekjAIQJYjYEnDJHdzKZNmzbJvHnzVDhnJhIIK4HcBA76hK2YEDkXXXSR2rJmhG8Pa3/ZbhIgARIgAT0CFDh63JiLBHwj8OWXX0rz5s3VeRomEkgkAnkJHIPFc889py7ohci59tprEwkR+0oCJEACJCAiFDgcBiQQMgLbt2+X+++/XyB0mEggkQiYFThgMmrUKHVPDkQOLq1lIgESIAESSBwCFDiJY2v2NE4I4HJNHKq2st0MF3HiYKWVbW1xgovdcIHAu+++KykpKVKsWDEXSs+5yJ9//lldSGt27GMVB1vWnnnmGXnppZc8bSsrIwESIAES8I8ABY5/7FkzCXhGANHTWrVqJRA6bie/D1G73b/I8r2Oxudl33KrCyspEBsdOnTwvElWmX/zzTcqwlqVKlVkzJgxnreXFZIACZAACXhPgALHe+askQQ8J7B161Z1+zuEjtvJbhhceN3r1q0rl156qdtNtVW+H2FWbTXYwcxWtoo5WK2top566inBreXYslaxYkVbZTEzCZAACeRGgI4+/8cHBY7/NmALSMASAUzS3nnnHUvbzfCynTVrlumtPZYaFPWw3xcZ2mm72byDU2eKrsA5fvy4LF++XCZOnKhsWK1aNbPVBua5MAocwEP46H/9619K5Nx1112B4cmGkAAJxBcBu46+sNDQ/R70on8UOF5QZh0k4CCBnTt3SqNGjZQ3OogpUuBUTS4XxCbaatPX274TOwIHZ6EQ5atIkSIyffr0LIGzf/9+eeWVV9T5qpo1a6ozI02bNpV8+fLZaq8bmcMqcMACQh9b1gYNGiRPP/20G3hYJgmQQIIToKMv9wHghaOPAifBP4TsfvgI7Nq1Sxo2bCgQOl6m8+fPy9y5c+X111+Xffv2yQMPPCC9evWSpKSkbM2gwMnbKitXrpROnTplCRy87CF2IGj+9Kc/yeTJk2Xo0KEydepUqVWrVt4FevxEmAUOUOEsWv369dV4rlOnjsf0WB0JkEC8E+D3YO4W9sLRR4ET758y9i/uCOA27EmTJlnabmb1ctCTJ0+qlQSIGOMszNq1a+XEiRNy6623yp49e+TZZ5+V66+/XrUj8lZouy/2Gys+LLM+SpdyFcoE0nZ2V3DQqWiBg4tYy5QpI1dccYXq84EDB9SZKUQMu++++wLHIcwCx7gMNH/+/GqrJwQlEwmQAAmYIUBH3x+U3PgedNrRR4FjZkTzGRIIOQGrl4MiFPXYsWMFE1kInGPHjsn69evltttuy9oyhcnhe++9pyJTRYYLpsDJe7BEC5xz584prsZ2tN27d8sLL7wgAwYMCOSB+LAKnE8//VSFjcZK2Ztvvpm3ofgECZBAwhLw09EXdOhuCBynHX0UOEEfRWwfCThAwMrloBAzmFyfPXtWhgwZogQOvFb4gdcbCX/H77Byg5WcyHMiiShw9u7dK71791bnO3C2plu3btKuXbus1a+DBw+qMx+4fLJevXrSsmVL6du3b7YzOOB65swZWb16tYwbN046d+4sN9xwgwPWd76IMAocbPeDuBk5cqS0adPGeSgskQRIIK4I+OnoCzpINwSO044+CpygjyK2jwSiCGB72IQJEyxFUYt1OeiaNWuUkMFLZfDgwbJx40Zp3ry5OmODibiR2rdvnyV08H+4/wRRqODdwk3x0eGcIXBq164t49/rK7c2uC7u7Bf9Yoc9Zs+eLQhDDHGDf+Niydtvv11dhnn48GF1XwzOfDz66KMCsdO/f39ZtmxZNoGD5XkIo9GjR0vJkiXl1VdfVYfggxguO2wCB+ITohHjFquQTCRAAiSQGwG/HX1Bt04sgRM0Rx8FTtBHEdtHAlEEcHEhJs+YSOumQ4cOqYhdiOZVvnx5mTJlilo5gNDBhBoTQgQSMFZwjHqwteqWW25R/2zSpIl67rrrsosYuys4un3yKl/0ix2MIGSiU+PGjdVZqYULFwru9hk2bJgULlxYPfbBBx/I888/f8EKjiEgx48fr1Z4wDd6hcyrfuZWDwTOiBEjpHTp0p4257ffflNjtEWLFqbqxUojVm1++OEHJW6MM06mMvMhEiCBuCfgpqMvNTVVUtJaSiJEEw2io48CJ+4/vuxgvBH49ttv1UF/CB3dhAhsWGXAPSxYbTl69KhgUt22bdtcBQ7qM7ZR9enTR53NQcSvyIsTE0ngVK5cWa1i3XzzzSooQHRCUAb8vmzZsvLaa69l/Tr6DE50PqyOYXUNQnT48OFqZShoyY+L7LC9DKIKgS3ySgijDnFz7bXXqm1pTCRAAiQQSYCOPv3xEAZHHwWOvn2ZkwR8IYBlYGy3MTPJMxoYfTkotkNhAg2vNs6EYBvaHXfcIYUKFVJZclrBiezwunXr5O9//7sqA9uvjGRX4IQpitrVV1+ttpUhyAJWXAoWLJhtTBjbzq688kpLAgeFIIjD+++/H1iB48fgN7s1btGiRUrc4C6hWKtrfrSddZIACQSLAB19+vaIFDhBdfRR4OjblzlJIDQEYl0OilWC+fPnq/tWPvnkExWSGGdDsI3KjMAxQhljhSJa4Ng5gxMmgZOcnKy28UFs4uwSAgsULVpUrXLhnFSzZs1k4MCBgiAPiEpXokQJNWawgoNzOTNmzJDq1avHHEc4i4MVMgioIF726cfgNyNw3nrrLWUPCO8ghtj2gxvrJAESuJBAkB19QbdXpMAJqqOPAifoo4jtIwEHCERfDgpxAi83tlXhnALOiHTt2lUyMjKkbt26pgTO999/rybf/fr1k7/85S/ZVnASSeBgdaxVq1aCe4IiU3p6ujo/s2HDBnVmpHXr1mo1AWIFQhJb/GrUqKFW4z7++GP5/PPP1cS8QoUKgnDGCL+NVSHcj8P0B4G8BA544ywZxE3NmjWJjQRIgARyJeCmoy+RzuAE0dFHgcMPPwmEjAAO/0OI4PyM2RR9OSgEDkLl4qdRo0aCcz1dunRRYqVWrVpqVQKTbpxdwGpDtWrVVEACRAFDpLXTp0+rZ6pUqSIPP/zwBWGi7Qgcs33y67lY0WMgciBYcDszDrJjNcw4zwQBiUk3VniwrQ//36BBAxUtDQKxTp06KhABoqZt3bpV/vrXvyrOsE3k/UJ+9TdI9eYkcPbv36+2pBUvXlyJm4suuihIzWZbSIAEAkjAbUdfIgmcIDr6KHAC+KFjk0ggNwJYOfm///s/FeVMN+HFvmrVKrUFKi0tTU0MIZhwDgcrDAgrjQk2tlQhahXCFiPqGqKtYfLYsGFDFaTgpptuumD7lN0zOLp98iqfE/H/vWprvNUTS+BgHEPcQGj36tUr3rrM/pAACbhEwG1HXyIJHJgoaI4+ChyXPjgslgTcIoCQt7gAEkIniClS4ASxfU60aXDqTCUMcQaHyTsC0QJn4sSJStxg1eaxxx7zriGsiQRIIPQE6OjTN2EYHH0UOPr2ZU4S8IXAjz/+qLY3WYmipnM5qG7nDIGjmx/ngXAOKIgXXEb2iQJH18L6+SIFDrb8TZ06VSBysM2PiQRIgASCQoCOPv8tQYHjvw3YAhJwnYATl4OabSRe7NjChnt1dC5WtJPXbBudeo4rOE6RNFcOBM7Zs2fVVghc+omVm6SkJHOZ+RQJkAAJeETArqPPo2baribIjj4KHNvmZQEkEHwCTlwOaqWXuPjzo48+UhHBrCY7ea3WxefDRaBz584qkAMCXSAcNBMJkAAJBJGAHxch+8UhqI4+Chy/RgTrJQFNAj///LOMGDHCUhQ1nctBNZunslGk2KHHvDkRwKQBgS7gNWQiARIgARIggZwIUOBwbJBAyAggJC5COUPoMJEACZAACZAACZAACWQnQIHDEUECISPwyy+/qAsiIXSYSIAESIAESIAESIAEKHA4Bkgg1AQQ2nLYsGGWoqjpXA7qFyRub/OLPOslARIgARIggfggwBWc+LAje0ECuRJw4nJQK4jtiBQ7ea20kc+SAAmQAAmQAAnEJwEKnPi0K3tFAtkIeH05qB2RYicvzU4CJEACJEACJEACFDgcAyQQMgIHDx5UIXJ79OhhuuU6l4OaLjzGgxQpdugxLwmQAAmQAAmQgB0CFDh26DEvCfhA4NChQ1KpUiXBn0wkQAIkQAIkQAIkQALZCVDgcESQQMgI/Prrr+qeGfzJRAIkQAIkQAIkQAIkQIHDMUACoSbw22+/SXp6uqUoajqXg/oFidvb/CLPekmABEiABEggPghwBSc+7MhekECuBLy+HNSOSLGTl8OABEiABEiABEiABChwOAZIIAEIeH05qB2RYidvApiSXSQBEiABEiABEsiDAAUOhwgJhIzAkSNHZNCgQZaiqOlcDmoHC0WKHXrMSwIkQAIkQAIkYIcABY4desxLAj4QOHr0qJQtW1bwJxMJkAAJkAAJkAAJkEB2AhQ4HBEkEDICx44dk9KlSwv+ZCIBEiABEiABEiABEqDA4RgggVAT+P3332XAgAGWoqjpXA7qFyRub/OLPOslARIgARIggfggwBWc+LAje0ECuRLw+nJQOyLFTl4OAxIgARIgARIgARKgwOEYIIEEIOD15aB2RIqdvAlgSnaRBEiABEiABEggDwIUOBwiJBAyAidOnJB+/fpZiqKmczmoHSwUKXboMS8JkAAJkAAJkIAdAhQ4dugxLwn4QODkyZNStGhRwZ9MJEACJECFfbNiAAALxElEQVQCJEACJEAC2QlQ4HBEkEDICGzatEluvPFG2bhxoy8tz8zMzKq3UqVKrrUhOTnZtbJZMAmQAAmQAAmQQPwSoMCJX9uyZ3FK4LPPPpOHHnpIqlatarqHZ86ckV27dkm1atVM5/HrwSVLlsjYsWPl4Ycf9qsJrJcESIAESIAESCDEBChwQmw8Nj0xCWzbtk1SU1MlJa2laQDHfz8pzf/WWRauyzCdJ6cH92bul5ljlkvLJ9JyLCulfUNJ7TNeLku6wnJ97R+pTYFjmRozkAAJkAAJkAAJGAQocDgWSMBnArijZvDgwTJ58mQ5cuSING/eXF577TW56qqrYrYsUuBUTS5nqvW/Hzsh15RuJjuPLTT1fG4PLZ23KUvglKsYexvZw40rSvqYj6TM5RUs1ffboZ/kH03+QoFjiRofJgESIAESIAESiCRAgcPxQAIeEkBggGnTpskDDzwgl156qRw/flxGjhwp9957r1SuXFl2794tzz77rBQsWFBGjx4tZcqUuaB1W7ZskZYtW8roWa+KWYFz/PcTMnLAdEl543HbvXVb4IxLbytdu3aVO++8U7uthw8flvnz58vChQtl6NChUqpUKe2ycsq4Zs0aefXVV2Xp0qVSoUIFZZMXXnhBkpKSHK+LBZIACZAACZAACZgnQIFjnhWfJAHbBL766iu1OtGzZ08lcL788kspVKiQRB7WRxCBBx98UAYOHCj33XdfTIFz7bXXyrKtE00LHNsNjyjAjMDRrQ8rOE4IHKyIvfXWW1K9enV55513lMDBOaR3331X0tPTZe3atVKvXj211e+OO+6QfPnyWWoyLk4dNmyYEmKw47Jly9SqG34aN26sytq7d6/07t1bZs2aJUWKFJFHH31UUlJSpGTJkll1oU0YD2+++ab6vyeeeEKee+45KVy4sKX28GESIAESIAESIIH/EaDA4WggAY8IHDt2THn4z549K0OGDFET41jpwIED8sgjj6jJLoROdNq6datcc801FDh52A3CZtKkSVkC57333pOLLrpIGjZsqEJsDxgwQCZMmCBvv/223H777ReUBjuMGDFCCY5oWyH/okWLpEmTJmq1LTrt379flQs7li1bVtavXy/PPPOM3HDDDdK/f/8sAbNgwQIpX7681KpVSzZs2KCeadu2rbRp08ajUclqSIAESIAESCD+CFDgxJ9N2SOfCWDrEoTMuXPn1NkahHPGuZrXX39dRo0aldW69u3bxxQ633//vXTo0EHS0tLUxDc64QwOyrOyRe3kiVMyrN9U6d7Dmy1quiZw8gxOpMCBCMHWvltvvTWrabj8tFOnTlK6dGl1cerFF1+crdm5CRw8CBGDLXDNmjVTKzSR6dNPP1Xb1lC2kSCIIFz+/e9/K6Hz008/yXfffaf+biSs+GB1KFZ7dJkyHwmQAAmQAAkkGgEKnESzOPvrKgFMTl955RXl9YdnfsqUKbJ69WoldLAKgAnsvn37cl3BwZkObKGCSIq1OqATZODUydNSrWgT2X3yfdv9N7NFLQhBBqJXcGJ1HPb48ccfZdCgQXLJJZdYEjh4GAEikPf+++9XQiW3rW7YnogVHWxtu+mmm+T8+fPqJ3/+/KperAq99NJL8re//U2aNm1q204sgARIgARIgAQSlQAFTqJanv12hcDOnTvVNqMePXpI7dq15ejRozJ+/Hi17ciMwMHheGxfe/rpp2MGGECjdQTO6VOnpcqfG8ueU4tt99svgYP7f7Cq9Z///EcqVqyozs+0aNEiSwTizMsbb7yhztk8+eST6vwNtqUZZ3CiO46tgjgzc/XVV8fcEpbXCg62HE6dOlXwHLagYbsaBEwsUYq6sYKE9mHb2+WXX57VHIicb775RgWbQJtbtWqVYxm2jccCSIAESIAESCABCFDgJICR2UXvCCAqGlZecP4Ch9ixDQ2H2BFIACm3FRwcOM/IyFAe/Bo1auTYaC2Bc/qM/CvtndBGUYOAgEDA5Z9guXnzZiUasVKGS0/37NmjWCMC3d13360uNYXIxApLTgLnhx9+kF69einRgXMyK1eulFtuuSXXwYLgDtOnT5fixYururt16ybXX3+9qr9169ZKmKI9sRKCCaDtEEGRKz1oHwIQID322GPSp0+fHEOEezeSWRMJkAAJkAAJhJcABU54bceWB5QAthohRDHCE3/yySfSsWPHrIPlOQkcePGx8oCw0LfddluuPdMROE6iMrOCo1tfrChqp06dUlu3sLIVnQy2iJgGcQmxUqBAAfUYwmzPmTMnpsAB74kTJ6qVoFgBBpA/pxUcrPwgCh4EKeyJ+lAe2rdixQoVFa1EiRLZmoptiePGjVNR1GJFSEPblyxZolaUqlatqtoeXYYuU+YjARIgARIggUQjQIGTaBZnf10lgEkxDpPDS49JLyatCCWMlZm6devGXMHBc5iII3wwJtvw7kMkYXsVzmrgsHpkSjSBg3NN2Lb18ssvK4bRyfg9VnfA3Ui5ncH5+OOP1SF/bHHL6dxMTgLHqO/GG29UgsRIKBMrSFjhqVatWtb/YysbtqVhdSbWvUaR/Zk9e7YScxC7iJTHRAIkQAIkQAIkYJ0ABY51ZsxBAjkSwKQYkbLw06hRI/n222+lS5cuKioWIqLBy4+JMM5bYEtUgwYNVFQtnNvBdqrIlFOUNR2Bc+7sORnSe1IooqhF34NjhM3GwXtsAYsWJMbvIYLMCBzcPbR8+XK1xS2n8zKwQ04Cx6gPYisvgWN226FhdwQigN2xIkWBwxcNCZAACZAACegRoMDR48ZcJBCTACa/q1atEnjtcSAeZzVwFsS4TBITWIgfbD9CZDVsaYIAOnLkyAXlIaQ0JrvRSUvgnDsv5QveJd+dW2rbcma2qNmJohYtcIwtaljdwPkUhMhGwAYEZJgxY4aKYIazMGCKO2aM805YwcE9N4hkl5SUpPoN/hA3OC+D57B6tm7dOsX/rrvuysYmJ4ED23bu3Fk9i4hoxpYzbCtDiHDj/4xLPHGuxwj3jbzTpk1TK0fFihW7wBY4Z4T7eSBwuEXN9lBlASRAAiRAAglKgAInQQ3PboeXgI7AwUS+XP56su/8h7Y77rXAQYOx2oXVGUQbMxLunsFFnljZmTt3rrRr104JIBzYxzYynMcZM2aMEi7YIgahBMGIsiKTETggcltZXpCM+iBGsDUOq0Ldu3dXYhYrO9hiiDNYaE+0eMW5HYQSx105EGaGAMa9OhDFED85nQvKq138PQmQAAmQAAmQgAgFDkcBCYSMQKTAsdL0CSPnSOsO91vJEvPZvZn7ZeaY5dLyibQcy0pp31BS+4yXy5KusFzfzPGp6tzSnXfemZUXAg13A/Xt21cFcMD5FzxjhInGpao4s4QVnB07digBUapUKfnoo4/UwX7kxxY2RF+LTvj/4cOHX3BZZ24NR30LFixQqy0IX43IbQhbfd111ykhhXZEbl+LLGvx4sVSv359yczMVJHYcP4K56waNmyo2mpFaFmGywwkQAIkQAIkkAAEKHASwMjsYnwRMAROfPUqe2+iBU4895V9IwESIAESIAEScJYABY6zPFkaCbhOAALHz4SVByNVqlTJtaYkJye7VjYLJgESIAESIAESiF8CFDjxa1v2jARIgARIgARIgARIgAQSjgAFTsKZnB0mARIgARIgARIgARIggfglQIETv7Zlz0iABEiABEiABEiABEgg4QhQ4CScydlhEiABEiABEiABEiABEohfAhQ48Wtb9owESIAESIAESIAESIAEEo4ABU7CmZwdJgESIAESIAESIAESIIH4JUCBE7+2Zc9IgARIgARIgARIgARIIOEIUOAknMnZYRIgARIgARIgARIgARKIXwIUOPFrW/aMBEiABEiABEiABEiABBKOAAVOwpmcHSYBEiABEiABEiABEiCB+CVAgRO/tmXPSIAESIAESIAESIAESCDhCFDgJJzJ2WESIAESIAESIAESIAESiF8CFDjxa1v2jARIgARIgARIgARIgAQSjsD/A1gnBqlJ9kW2AAAAAElFTkSuQmCC;" vertex="1" parent="7VG0Se6K9YWMU1WsLbms-359">
          <mxGeometry x="2.01" y="28.72" width="435" height="62.82" as="geometry" />
        </mxCell>
        <mxCell id="7VG0Se6K9YWMU1WsLbms-376" style="edgeStyle=orthogonalEdgeStyle;rounded=0;orthogonalLoop=1;jettySize=auto;html=1;exitX=0;exitY=0.5;exitDx=0;exitDy=0;entryX=1;entryY=0.5;entryDx=0;entryDy=0;" edge="1" parent="1" source="7VG0Se6K9YWMU1WsLbms-367" target="7VG0Se6K9YWMU1WsLbms-168">
          <mxGeometry relative="1" as="geometry" />
        </mxCell>
        <mxCell id="7VG0Se6K9YWMU1WsLbms-367" value="Selection and Update the external archive" style="whiteSpace=wrap;html=1;fontSize=13;fontFamily=Times New Roman;verticalAlign=top;rounded=0;horizontal=1;" vertex="1" parent="1">
          <mxGeometry x="680" y="589.5" width="90" height="67" as="geometry" />
        </mxCell>
        <mxCell id="7VG0Se6K9YWMU1WsLbms-373" style="edgeStyle=orthogonalEdgeStyle;rounded=0;orthogonalLoop=1;jettySize=auto;html=1;exitX=0.25;exitY=1;exitDx=0;exitDy=0;entryX=0.667;entryY=0.003;entryDx=0;entryDy=0;entryPerimeter=0;" edge="1" parent="1" source="7VG0Se6K9YWMU1WsLbms-168" target="7VG0Se6K9YWMU1WsLbms-206">
          <mxGeometry relative="1" as="geometry" />
        </mxCell>
        <mxCell id="7VG0Se6K9YWMU1WsLbms-377" value="" style="group" vertex="1" connectable="0" parent="1">
          <mxGeometry x="200" y="280" width="580" height="210" as="geometry" />
        </mxCell>
        <mxCell id="7VG0Se6K9YWMU1WsLbms-1" value="Scheduling pre-processing" style="rounded=0;whiteSpace=wrap;html=1;fillColor=#ffffdf;strokeWidth=0.5;fontFamily=Times New Roman;fontSize=13;verticalAlign=top;" vertex="1" parent="7VG0Se6K9YWMU1WsLbms-377">
          <mxGeometry width="580" height="210" as="geometry" />
        </mxCell>
        <mxCell id="7VG0Se6K9YWMU1WsLbms-3" value="Caculate the visible time window" style="rounded=0;whiteSpace=wrap;html=1;fontFamily=Times New Roman;fontSize=13;" vertex="1" parent="7VG0Se6K9YWMU1WsLbms-377">
          <mxGeometry x="37.02127659574468" y="35" width="505.95744680851067" height="30" as="geometry" />
        </mxCell>
        <mxCell id="7VG0Se6K9YWMU1WsLbms-5" value="Task priority Caculation" style="rounded=0;whiteSpace=wrap;html=1;fontFamily=Times New Roman;fontSize=13;" vertex="1" parent="7VG0Se6K9YWMU1WsLbms-377">
          <mxGeometry x="37.02127659574468" y="90" width="185.10638297872342" height="30" as="geometry" />
        </mxCell>
        <mxCell id="7VG0Se6K9YWMU1WsLbms-13" style="edgeStyle=orthogonalEdgeStyle;rounded=0;orthogonalLoop=1;jettySize=auto;html=1;exitX=0.5;exitY=1;exitDx=0;exitDy=0;endArrow=classicThin;endFill=1;fontFamily=Times New Roman;fontSize=13;" edge="1" parent="7VG0Se6K9YWMU1WsLbms-377" source="7VG0Se6K9YWMU1WsLbms-3" target="7VG0Se6K9YWMU1WsLbms-5">
          <mxGeometry relative="1" as="geometry">
            <Array as="points">
              <mxPoint x="129.5744680851064" y="65" />
            </Array>
          </mxGeometry>
        </mxCell>
        <mxCell id="7VG0Se6K9YWMU1WsLbms-6" value="Conflict degree Caculation" style="rounded=0;whiteSpace=wrap;html=1;fontFamily=Times New Roman;fontSize=13;" vertex="1" parent="7VG0Se6K9YWMU1WsLbms-377">
          <mxGeometry x="357.8723404255319" y="90" width="185.10638297872342" height="30" as="geometry" />
        </mxCell>
        <mxCell id="7VG0Se6K9YWMU1WsLbms-207" style="edgeStyle=orthogonalEdgeStyle;rounded=0;orthogonalLoop=1;jettySize=auto;html=1;exitX=0.5;exitY=1;exitDx=0;exitDy=0;" edge="1" parent="7VG0Se6K9YWMU1WsLbms-377" source="7VG0Se6K9YWMU1WsLbms-3" target="7VG0Se6K9YWMU1WsLbms-6">
          <mxGeometry relative="1" as="geometry">
            <Array as="points">
              <mxPoint x="450.4255319148936" y="65" />
            </Array>
          </mxGeometry>
        </mxCell>
        <mxCell id="7VG0Se6K9YWMU1WsLbms-14" value="Task priority-based/Conflict degree-based &lt;br style=&quot;font-size: 13px;&quot;&gt;&amp;nbsp;fast scheduling algorithm" style="rounded=0;whiteSpace=wrap;html=1;fontFamily=Times New Roman;fontSize=13;" vertex="1" parent="7VG0Se6K9YWMU1WsLbms-377">
          <mxGeometry x="37.02127659574468" y="150" width="505.95744680851067" height="40" as="geometry" />
        </mxCell>
        <mxCell id="7VG0Se6K9YWMU1WsLbms-15" style="rounded=0;orthogonalLoop=1;jettySize=auto;html=1;exitX=0.5;exitY=1;exitDx=0;exitDy=0;entryX=0.5;entryY=0;entryDx=0;entryDy=0;endArrow=classicThin;endFill=1;fontFamily=Times New Roman;fontSize=13;" edge="1" parent="7VG0Se6K9YWMU1WsLbms-377" source="7VG0Se6K9YWMU1WsLbms-5" target="7VG0Se6K9YWMU1WsLbms-14">
          <mxGeometry relative="1" as="geometry" />
        </mxCell>
        <mxCell id="7VG0Se6K9YWMU1WsLbms-18" style="rounded=0;orthogonalLoop=1;jettySize=auto;html=1;exitX=0.5;exitY=1;exitDx=0;exitDy=0;entryX=0.5;entryY=0;entryDx=0;entryDy=0;endArrow=classicThin;endFill=1;fontFamily=Times New Roman;fontSize=13;" edge="1" parent="7VG0Se6K9YWMU1WsLbms-377" source="7VG0Se6K9YWMU1WsLbms-6" target="7VG0Se6K9YWMU1WsLbms-14">
          <mxGeometry relative="1" as="geometry" />
        </mxCell>
      </root>
    </mxGraphModel>
  </diagram>
</mxfile>
